<?xml version="1.0" encoding="utf-8"?>
<!-- Generator: Adobe Illustrator 16.0.0, SVG Export Plug-In . SVG Version: 6.00 Build 0)  -->
<!DOCTYPE svg PUBLIC "-//W3C//DTD SVG 1.1//EN" "http://www.w3.org/Graphics/SVG/1.1/DTD/svg11.dtd">
<svg version="1.1" id="Calque_1" xmlns="http://www.w3.org/2000/svg" xmlns:xlink="http://www.w3.org/1999/xlink" x="0px" y="0px"
	 width="150px" height="200px" viewBox="0 0 150 200" enable-background="new 0 0 150 200" xml:space="preserve">
<path fill="none" stroke="#FFFFFF" stroke-width="5" stroke-miterlimit="10" d="M132.5,138c0,31.757-25.743,57.5-57.5,57.5l0,0
	c-31.756,0-57.5-25.743-57.5-57.5V61C17.5,29.244,43.244,3.5,75,3.5l0,0c31.757,0,57.5,25.744,57.5,57.5V138z"/>
<g>
	<g>
		<path fill="#FFFFFF" d="M80.018,76.075c0-13.825,0-27.65,0-41.475c0-4.836-7.5-4.836-7.5,0c0,13.825,0,27.65,0,41.475
			C72.518,80.911,80.018,80.911,80.018,76.075L80.018,76.075z"/>
	</g>
</g>
</svg>
