<?xml version="1.0" encoding="utf-8"?>
<!-- Generator: Adobe Illustrator 16.0.0, SVG Export Plug-In . SVG Version: 6.00 Build 0)  -->
<!DOCTYPE svg PUBLIC "-//W3C//DTD SVG 1.1//EN" "http://www.w3.org/Graphics/SVG/1.1/DTD/svg11.dtd">
<svg version="1.1" id="Calque_1" xmlns="http://www.w3.org/2000/svg" xmlns:xlink="http://www.w3.org/1999/xlink" x="0px" y="0px"
	 width="75px" height="85px" viewBox="0 0 75 85" enable-background="new 0 0 75 85" xml:space="preserve">
<polygon fill="#F2F2F2" points="28.335,34.376 26.707,0.992 48.193,0.902 46.767,34.298 70.05,28.745 71.374,28.741 72.778,29.145 
	73.854,30.134 74.357,31.54 74.363,32.939 73.876,34.348 40.855,82.51 40.364,83.011 39.866,83.507 39.126,83.843 38.549,84.091 
	37.062,84.097 36.316,83.853 35.737,83.524 35.154,83.031 34.659,82.54 1.146,34.658 0.64,33.257 0.637,31.854 1.292,30.446 
	2.278,29.449 3.599,29.03 5.089,29.023 "/>
</svg>
