<?xml version="1.0" encoding="utf-8"?>
<!-- Generator: Adobe Illustrator 16.0.0, SVG Export Plug-In . SVG Version: 6.00 Build 0)  -->
<!DOCTYPE svg PUBLIC "-//W3C//DTD SVG 1.1//EN" "http://www.w3.org/Graphics/SVG/1.1/DTD/svg11.dtd">
<svg version="1.1" id="Calque_1" xmlns="http://www.w3.org/2000/svg" xmlns:xlink="http://www.w3.org/1999/xlink" x="0px" y="0px"
	 width="800px" height="400px" viewBox="0 0 800 400" enable-background="new 0 0 800 400" xml:space="preserve">
<g>
	<g>
		<defs>
			<rect id="SVGID_1_" x="0" y="0" width="799" height="799"/>
		</defs>
		<clipPath id="SVGID_2_">
			<use xlink:href="#SVGID_1_"  overflow="visible"/>
		</clipPath>
		<g clip-path="url(#SVGID_2_)">
			<defs>
				<rect id="SVGID_3_" x="0" y="0" width="799" height="799"/>
			</defs>
			<clipPath id="SVGID_4_">
				<use xlink:href="#SVGID_3_"  overflow="visible"/>
			</clipPath>
			<path clip-path="url(#SVGID_4_)" fill="#F6F6F6" d="M277.745,340.921c-0.48-0.624-1.086-1.104-1.822-1.439
				c-0.734-0.335-1.495-0.503-2.277-0.503c-0.959,0-1.826,0.181-2.601,0.539c-0.775,0.36-1.438,0.852-1.99,1.475
				c-0.551,0.624-0.978,1.354-1.283,2.193c-0.303,0.84-0.455,1.737-0.455,2.696c0,0.896,0.144,1.742,0.432,2.541
				c0.288,0.799,0.703,1.502,1.246,2.109c0.543,0.606,1.207,1.087,1.99,1.438c0.782,0.353,1.67,0.528,2.661,0.528
				c0.975,0,1.829-0.2,2.564-0.6s1.358-0.958,1.87-1.678l1.942,1.463c-0.128,0.176-0.352,0.427-0.671,0.755
				c-0.32,0.327-0.743,0.654-1.271,0.981c-0.528,0.328-1.163,0.616-1.906,0.863c-0.743,0.248-1.602,0.372-2.577,0.372
				c-1.342,0-2.553-0.256-3.631-0.767c-1.079-0.512-1.998-1.184-2.756-2.014c-0.759-0.831-1.338-1.77-1.738-2.817
				c-0.4-1.047-0.599-2.104-0.599-3.176c0-1.31,0.215-2.521,0.646-3.631c0.432-1.111,1.035-2.07,1.811-2.876
				c0.774-0.808,1.706-1.436,2.792-1.882c1.087-0.448,2.286-0.672,3.595-0.672c1.119,0,2.217,0.216,3.296,0.647
				c1.079,0.431,1.962,1.095,2.649,1.989L277.745,340.921z"/>
			<path clip-path="url(#SVGID_4_)" fill="#F6F6F6" d="M290.593,354.656c-1.294,0-2.485-0.229-3.572-0.684
				c-1.088-0.456-2.017-1.083-2.792-1.882s-1.382-1.742-1.822-2.828c-0.439-1.087-0.659-2.261-0.659-3.523s0.22-2.438,0.659-3.523
				c0.44-1.087,1.046-2.03,1.822-2.829c0.775-0.798,1.704-1.426,2.792-1.881c1.086-0.455,2.277-0.684,3.572-0.684
				s2.485,0.229,3.572,0.684s2.017,1.083,2.792,1.881c0.774,0.799,1.382,1.742,1.822,2.829c0.439,1.086,0.658,2.261,0.658,3.523
				s-0.219,2.437-0.658,3.523c-0.44,1.086-1.047,2.029-1.822,2.828c-0.775,0.799-1.706,1.426-2.792,1.882
				C293.078,354.428,291.887,354.656,290.593,354.656 M290.593,352.499c0.975,0,1.853-0.18,2.636-0.54
				c0.783-0.359,1.455-0.843,2.014-1.45c0.559-0.606,0.99-1.322,1.294-2.145c0.303-0.823,0.456-1.698,0.456-2.625
				s-0.152-1.802-0.456-2.625c-0.304-0.822-0.735-1.537-1.294-2.146c-0.56-0.607-1.231-1.09-2.014-1.45
				c-0.783-0.359-1.662-0.539-2.636-0.539s-1.854,0.18-2.636,0.539c-0.783,0.36-1.455,0.843-2.014,1.45
				c-0.559,0.608-0.991,1.323-1.294,2.146c-0.303,0.823-0.456,1.698-0.456,2.625s0.152,1.802,0.456,2.625
				c0.303,0.822,0.735,1.538,1.294,2.145c0.56,0.607,1.231,1.091,2.014,1.45C288.739,352.319,289.618,352.499,290.593,352.499"/>
			<path clip-path="url(#SVGID_4_)" fill="#F6F6F6" d="M302.361,337.253h5.92c1.199,0,2.249,0.136,3.152,0.408
				c0.902,0.271,1.685,0.635,2.349,1.09c0.663,0.456,1.214,0.979,1.654,1.57c0.44,0.592,0.787,1.199,1.043,1.822
				c0.255,0.623,0.439,1.245,0.551,1.869c0.112,0.623,0.168,1.198,0.168,1.726c0,1.087-0.2,2.138-0.599,3.152
				c-0.4,1.015-0.991,1.918-1.774,2.709s-1.754,1.426-2.913,1.905s-2.497,0.719-4.014,0.719h-5.537V337.253z M304.662,352.066h2.9
				c0.975,0,1.897-0.132,2.768-0.396c0.871-0.264,1.635-0.658,2.29-1.187c0.655-0.527,1.174-1.187,1.559-1.978
				c0.383-0.791,0.574-1.714,0.574-2.769c0-0.543-0.088-1.178-0.263-1.905c-0.176-0.727-0.507-1.418-0.995-2.074
				c-0.486-0.654-1.163-1.21-2.025-1.665c-0.863-0.456-1.981-0.684-3.356-0.684h-3.452V352.066z"/>
			<polygon clip-path="url(#SVGID_4_)" fill="#F6F6F6" points="320.506,337.253 331.46,337.253 331.46,339.41 322.807,339.41 
				322.807,344.468 330.862,344.468 330.862,346.625 322.807,346.625 322.807,352.066 331.893,352.066 331.893,354.224 
				320.506,354.224 			"/>
			<path clip-path="url(#SVGID_4_)" fill="#F6F6F6" d="M336.303,354.367c-0.431,0-0.803-0.156-1.115-0.467
				c-0.312-0.312-0.467-0.684-0.467-1.115c0-0.431,0.156-0.803,0.467-1.114c0.312-0.312,0.684-0.468,1.115-0.468
				s0.803,0.156,1.115,0.468c0.311,0.312,0.467,0.684,0.467,1.114c0,0.432-0.156,0.803-0.467,1.115
				C337.106,354.211,336.734,354.367,336.303,354.367"/>
			<path clip-path="url(#SVGID_4_)" fill="#F6F6F6" d="M354.76,337.253h5.92c1.199,0,2.25,0.136,3.152,0.408
				c0.902,0.271,1.686,0.635,2.349,1.09c0.664,0.456,1.214,0.979,1.654,1.57c0.439,0.592,0.787,1.199,1.042,1.822
				c0.256,0.623,0.439,1.245,0.551,1.869c0.112,0.623,0.168,1.198,0.168,1.726c0,1.087-0.2,2.138-0.599,3.152
				c-0.4,1.015-0.991,1.918-1.774,2.709s-1.754,1.426-2.913,1.905s-2.497,0.719-4.015,0.719h-5.537V337.253z M357.061,352.066h2.9
				c0.975,0,1.897-0.132,2.768-0.396s1.634-0.658,2.289-1.187c0.656-0.527,1.174-1.187,1.559-1.978
				c0.383-0.791,0.575-1.714,0.575-2.769c0-0.543-0.088-1.178-0.264-1.905c-0.175-0.727-0.507-1.418-0.995-2.074
				c-0.487-0.654-1.163-1.21-2.025-1.665c-0.863-0.456-1.982-0.684-3.356-0.684h-3.452V352.066z"/>
			<polygon clip-path="url(#SVGID_4_)" fill="#F6F6F6" points="372.905,337.253 383.859,337.253 383.859,339.41 375.206,339.41 
				375.206,344.468 383.26,344.468 383.26,346.625 375.206,346.625 375.206,352.066 384.291,352.066 384.291,354.224 
				372.905,354.224 			"/>
			<path clip-path="url(#SVGID_4_)" fill="#F6F6F6" d="M388.055,350.677c0.416,0.623,0.947,1.083,1.594,1.378
				c0.647,0.296,1.315,0.444,2.001,0.444c0.384,0,0.775-0.061,1.175-0.181c0.397-0.119,0.763-0.3,1.09-0.539
				s0.595-0.535,0.803-0.887c0.206-0.352,0.312-0.759,0.312-1.223c0-0.655-0.208-1.154-0.623-1.498
				c-0.416-0.343-0.932-0.631-1.547-0.863c-0.615-0.23-1.286-0.455-2.013-0.671c-0.727-0.216-1.398-0.515-2.013-0.899
				c-0.615-0.383-1.131-0.898-1.546-1.546c-0.416-0.646-0.623-1.521-0.623-2.624c0-0.496,0.107-1.022,0.323-1.582
				s0.556-1.071,1.019-1.534c0.463-0.464,1.059-0.851,1.786-1.163c0.727-0.311,1.602-0.467,2.625-0.467
				c0.925,0,1.813,0.128,2.661,0.383c0.847,0.256,1.59,0.775,2.229,1.559l-1.87,1.702c-0.288-0.447-0.694-0.808-1.222-1.079
				c-0.527-0.271-1.126-0.407-1.797-0.407c-0.64,0-1.17,0.084-1.595,0.252c-0.423,0.167-0.765,0.383-1.018,0.646
				c-0.256,0.265-0.435,0.548-0.54,0.852c-0.104,0.303-0.156,0.583-0.156,0.839c0,0.719,0.208,1.271,0.623,1.654
				c0.416,0.383,0.932,0.695,1.546,0.934c0.615,0.24,1.287,0.456,2.014,0.648c0.727,0.19,1.397,0.459,2.013,0.803
				c0.615,0.343,1.13,0.807,1.546,1.391c0.416,0.583,0.623,1.386,0.623,2.408c0,0.815-0.155,1.551-0.467,2.205
				c-0.311,0.655-0.73,1.206-1.258,1.654c-0.527,0.447-1.151,0.791-1.87,1.03c-0.719,0.24-1.486,0.36-2.301,0.36
				c-1.086,0-2.117-0.192-3.093-0.575c-0.974-0.384-1.75-0.976-2.325-1.774L388.055,350.677z"/>
			<rect x="400.876" y="337.252" clip-path="url(#SVGID_4_)" fill="#F6F6F6" width="2.301" height="16.971"/>
			<path clip-path="url(#SVGID_4_)" fill="#F6F6F6" d="M421.996,344.732v8.365c-0.416,0.256-0.887,0.479-1.415,0.671
				c-0.529,0.192-1.074,0.356-1.642,0.491c-0.567,0.136-1.143,0.236-1.728,0.3c-0.582,0.064-1.129,0.096-1.642,0.096
				c-1.437,0-2.72-0.239-3.848-0.719c-1.125-0.479-2.076-1.127-2.851-1.942c-0.775-0.814-1.366-1.761-1.773-2.84
				c-0.408-1.079-0.612-2.217-0.612-3.416c0-1.262,0.221-2.437,0.66-3.523c0.438-1.087,1.046-2.029,1.823-2.828
				c0.771-0.799,1.704-1.427,2.791-1.882c1.086-0.456,2.277-0.683,3.571-0.683c1.563,0,2.844,0.196,3.835,0.587
				c0.991,0.392,1.822,0.931,2.493,1.618l-1.63,1.75c-0.703-0.671-1.446-1.139-2.229-1.402s-1.605-0.396-2.469-0.396
				c-0.976,0-1.854,0.18-2.637,0.539c-0.784,0.359-1.457,0.843-2.014,1.449c-0.559,0.608-0.991,1.323-1.294,2.146
				c-0.306,0.823-0.456,1.698-0.456,2.624c0,0.959,0.168,1.851,0.504,2.673c0.335,0.823,0.797,1.538,1.391,2.146
				c0.589,0.606,1.285,1.083,2.083,1.426c0.801,0.344,1.67,0.517,2.614,0.517c0.815,0,1.587-0.076,2.313-0.229
				c0.725-0.152,1.346-0.372,1.858-0.659v-4.722h-3.765v-2.157H421.996z"/>
			<polygon clip-path="url(#SVGID_4_)" fill="#F6F6F6" points="426.189,337.253 429.209,337.253 438.558,351.203 438.607,351.203 
				438.607,337.253 440.907,337.253 440.907,354.224 437.982,354.224 428.538,340.273 428.49,340.273 428.49,354.224 
				426.189,354.224 			"/>
			<path clip-path="url(#SVGID_4_)" fill="#F6F6F6" d="M446.42,354.367c-0.431,0-0.801-0.156-1.114-0.467
				c-0.312-0.312-0.468-0.684-0.468-1.115c0-0.431,0.156-0.803,0.468-1.114c0.313-0.312,0.684-0.468,1.114-0.468
				c0.432,0,0.801,0.156,1.115,0.468c0.311,0.312,0.467,0.684,0.467,1.114c0,0.432-0.156,0.803-0.467,1.115
				C447.221,354.211,446.852,354.367,446.42,354.367"/>
			<path clip-path="url(#SVGID_4_)" fill="#F6F6F6" d="M465.263,337.253h5.968c1.085,0,1.98,0.148,2.686,0.444
				c0.7,0.295,1.258,0.671,1.666,1.126c0.404,0.456,0.688,0.967,0.849,1.534c0.162,0.567,0.242,1.115,0.242,1.642
				c0,0.527-0.08,1.075-0.242,1.643c-0.16,0.566-0.444,1.079-0.849,1.534c-0.408,0.455-0.966,0.831-1.666,1.127
				c-0.705,0.295-1.601,0.442-2.686,0.442h-3.667v7.479h-2.301V337.253z M467.563,344.732h3.021c0.445,0,0.889-0.036,1.33-0.108
				c0.438-0.071,0.831-0.204,1.175-0.396s0.617-0.467,0.827-0.827c0.206-0.359,0.312-0.827,0.312-1.402s-0.105-1.043-0.312-1.401
				c-0.21-0.36-0.483-0.636-0.827-0.827c-0.344-0.192-0.737-0.324-1.175-0.396c-0.441-0.072-0.885-0.107-1.33-0.107h-3.021V344.732z
				"/>
			<path clip-path="url(#SVGID_4_)" fill="#F6F6F6" d="M479.476,337.253h5.968c1.087,0,1.982,0.148,2.686,0.444
				c0.701,0.295,1.26,0.671,1.666,1.126c0.407,0.456,0.688,0.967,0.849,1.534c0.161,0.567,0.243,1.115,0.243,1.642
				c0,0.543-0.098,1.067-0.289,1.57c-0.192,0.503-0.468,0.959-0.827,1.366c-0.359,0.408-0.799,0.751-1.319,1.031
				c-0.519,0.279-1.1,0.45-1.736,0.515l4.816,7.742h-2.878l-4.313-7.479h-2.563v7.479h-2.301V337.253z M481.776,344.732h3.021
				c0.447,0,0.889-0.036,1.33-0.108c0.439-0.071,0.831-0.204,1.175-0.396c0.343-0.191,0.619-0.467,0.827-0.827
				c0.206-0.359,0.311-0.827,0.311-1.402s-0.104-1.043-0.311-1.401c-0.208-0.36-0.484-0.636-0.827-0.827
				c-0.344-0.192-0.735-0.324-1.175-0.396c-0.441-0.072-0.883-0.107-1.33-0.107h-3.021V344.732z"/>
			<rect x="494.12" y="337.252" clip-path="url(#SVGID_4_)" fill="#F6F6F6" width="2.301" height="16.971"/>
			<polygon clip-path="url(#SVGID_4_)" fill="#F6F6F6" points="500.784,337.253 503.805,337.253 513.152,351.203 513.2,351.203 
				513.2,337.253 515.502,337.253 515.502,354.224 512.576,354.224 503.133,340.273 503.085,340.273 503.085,354.224 
				500.784,354.224 			"/>
			<polygon clip-path="url(#SVGID_4_)" fill="#F6F6F6" points="523.412,339.41 517.947,339.41 517.947,337.253 531.179,337.253 
				531.179,339.41 525.711,339.41 525.711,354.224 523.412,354.224 			"/>
			<path clip-path="url(#SVGID_4_)" fill="#F6F6F6" d="M532.111,354.367c-0.431,0-0.803-0.156-1.114-0.467
				c-0.312-0.312-0.468-0.684-0.468-1.115c0-0.431,0.156-0.803,0.468-1.114s0.684-0.468,1.114-0.468
				c0.432,0,0.803,0.156,1.115,0.468c0.312,0.312,0.467,0.684,0.467,1.114c0,0.432-0.155,0.803-0.467,1.115
				C532.914,354.211,532.543,354.367,532.111,354.367"/>
		</g>
		<g clip-path="url(#SVGID_2_)">
			<defs>
				<rect id="SVGID_5_" x="0" y="0" width="799" height="799"/>
			</defs>
			<clipPath id="SVGID_6_">
				<use xlink:href="#SVGID_5_"  overflow="visible"/>
			</clipPath>
			<path clip-path="url(#SVGID_6_)" fill="#F6F6F6" d="M79.831,161.45c4.101,2.884,8.6,5.685,13.493,8.406
				c4.894,2.718,9.79,5.474,14.695,8.255c4.902,2.781,9.41,5.682,13.527,8.684c9.318,6.748,14.548,14.815,15.683,24.178
				c1.403,11.586-1.835,21.801-9.706,30.63c-7.874,8.828-19.02,14.125-33.442,15.863c-14.421,1.748-25.911-0.179-34.469-5.768
				c-8.553-5.598-13.377-12.889-14.468-21.887c-0.803-6.658,0.514-12.284,3.962-16.896c3.441-4.604,8.305-7.291,14.597-8.053
				c1.724-0.208,3.416-0.158,5.078,0.143c-3.12,6.252-4.276,12.682-3.479,19.27c0.797,6.596,3.757,11.959,8.889,16.087
				c5.126,4.136,12.249,5.649,21.372,4.548c6.53-0.791,12.113-3.503,16.745-8.129c4.631-4.616,6.512-10.509,5.649-17.655
				c-0.568-4.687-2.665-9.091-6.29-13.22c-3.625-4.125-7.931-7.636-12.908-10.539c-4.98-2.894-10.438-6.15-16.374-9.742
				c-5.94-3.595-11.427-7.085-16.465-10.479c-5.038-3.393-9.44-7.74-13.21-13.036c-3.767-5.295-6.027-11.024-6.769-17.19
				c-1.419-11.71,1.432-21.468,8.557-29.271c7.121-7.802,18.197-12.614,33.241-14.435c12.203-1.477,22.176,0.599,29.926,6.224
				c7.742,5.63,12.041,11.931,12.884,18.89c0.843,6.968-0.35,12.892-3.568,17.786c-3.228,4.892-8.102,7.734-14.632,8.523
				c-2.221,0.272-4.411,0.288-6.561,0.044c5.259-7.139,7.46-14.284,6.595-21.438c-0.865-7.144-3.736-12.267-8.613-15.366
				c-4.878-3.098-10.735-4.237-17.578-3.408c-6.842,0.827-12.427,3.505-16.757,8.032c-4.329,4.528-6.008,10.797-5.04,18.805
				C65.365,147.322,70.509,154.702,79.831,161.45"/>
			<path clip-path="url(#SVGID_6_)" fill="#F6F6F6" d="M152.789,236.094c-2.047-2.884-3.335-6.526-3.867-10.912
				c-0.532-4.391-0.699-10.746-0.498-19.079c0.198-8.325,0.026-14.757-0.525-19.297c-0.547-4.539-1.196-8.012-1.939-10.408
				c1.32-0.307,2.391-0.521,3.21-0.615c3.347-0.406,5.855,0.044,7.524,1.35c1.668,1.313,2.71,3.678,3.124,7.1
				c0.136,1.117-0.068,7.084-0.607,17.905c-0.543,10.823-0.416,19.68,0.381,26.566c0.8,6.884,1.764,11.278,2.898,13.178
				C158.07,240.91,154.838,238.974,152.789,236.094 M154.752,163.896c-6.25,0.759-9.633-0.985-10.146-5.228
				c-0.179-1.483,0.126-3.637,0.917-6.45c1.601-0.496,2.994-0.816,4.187-0.961c6.248-0.757,9.631,0.985,10.144,5.23
				c0.182,1.486-0.124,3.633-0.917,6.448C157.333,163.435,155.939,163.75,154.752,163.896"/>
			<path clip-path="url(#SVGID_6_)" fill="#F6F6F6" d="M231.542,188.858c-1.544,3.771-2.655,8.451-3.339,14.046
				c-0.682,5.595-0.731,10.807-0.143,15.643c0.582,4.836,1.353,9.313,2.302,13.421c-1.916,0.384-3.061,0.595-3.432,0.639
				c-6.473,0.785-10.091-1.986-10.858-8.307c-0.277-2.304-0.172-8.133,0.322-17.477c0.494-9.344,0.459-16.309-0.094-20.88
				c-0.556-4.578-2.542-6.662-5.965-6.242c-4.241,0.511-8.06,5.127-11.459,13.841c-3.398,8.718-4.391,18.912-2.977,30.597
				c0.45,3.715,1.153,7.638,2.102,11.745c-1.917,0.38-3.062,0.6-3.432,0.637c-6.471,0.791-10.093-1.982-10.857-8.309
				c-0.101-0.813-0.011-6.452,0.275-16.898c0.282-10.454,0.059-18.671-0.665-24.666c-0.723-5.986-2.021-11.397-3.887-16.229
				c4.668,1.172,8.072,3.252,10.207,6.242c2.133,2.984,3.488,6.822,4.052,11.51c0.29,2.378,0.394,5.427,0.314,9.134
				c1.629-7.746,4.38-14.348,8.247-19.797c3.872-5.449,7.665-8.398,11.384-8.848c8.333-1.01,13.281,4.923,14.839,17.789
				c2.03-6.282,4.641-11.372,7.833-15.271c3.186-3.896,6.348-6.032,9.47-6.408c4.536-0.551,7.9,0.419,10.094,2.906
				c2.183,2.497,3.561,6.063,4.126,10.712c0.561,4.654,0.625,11.266,0.193,19.85c-0.435,8.584-0.419,14.791,0.045,18.619
				c0.463,3.835,1.283,6.569,2.463,8.193c1.18,1.634,3,2.939,5.459,3.931c-0.959,0.185-2.329,0.392-4.117,0.604
				c-4.76,0.577-8.396,0.018-10.904-1.672c-2.505-1.699-4.049-4.932-4.626-9.689c-0.332-2.757-0.262-8.407,0.213-16.956
				c0.475-8.55,0.473-14.798-0.004-18.738c-0.598-4.912-2.601-7.163-6.024-6.75c-1.935,0.24-3.894,1.534-5.871,3.887
				C234.848,182.015,233.084,185.082,231.542,188.858"/>
			<path clip-path="url(#SVGID_6_)" fill="#F6F6F6" d="M297.879,164.405c4.353-4.265,9.001-6.696,13.952-7.293
				c4.946-0.603,9.32,1.081,13.121,5.036c3.799,3.955,6.152,9.656,7.051,17.093c0.993,8.187,0.348,15.959-1.931,23.332
				c-2.562,8.162-6.965,14.171-13.218,18.02c-3.363,2.146-7.205,3.478-11.521,4c-6.022,0.727-11.609-1.14-16.757-5.62
				c-5.148-4.468-8.282-11.376-9.412-20.711c-1.133-9.332-0.102-17.67,3.088-25.001c3.188-7.329,8.08-12.753,14.676-16.27
				c1.485-0.181,2.32,0.471,2.5,1.962c-6.779,5.731-10.401,13.866-10.858,24.417C290.421,174.99,293.527,168.668,297.879,164.405
				 M321.453,183.749c-0.877-7.257-2.419-12.353-4.624-15.297c-2.209-2.939-5.003-4.207-8.388-3.797
				c-3.385,0.412-6.589,2.479-9.61,6.202c-3.021,3.728-5.227,8.144-6.605,13.256c-1.383,5.112-1.755,10.289-1.119,15.53
				c0.633,5.248,2.188,9.666,4.662,13.256c2.468,3.589,5.75,5.135,9.845,4.638c5.801-0.703,10.111-4.698,12.928-11.981
				C321.361,198.269,322.332,191,321.453,183.749"/>
			<path clip-path="url(#SVGID_6_)" fill="#F6F6F6" d="M398.798,162.325c0.417,3.421,0.421,9.554,0.02,18.399
				c-0.401,8.841-0.365,15.237,0.114,19.174c0.48,3.943,1.307,6.736,2.487,8.366c1.172,1.627,2.998,2.934,5.455,3.928
				c-0.959,0.187-2.333,0.393-4.113,0.606c-5.067,0.611-8.764,0.098-11.116-1.542c-2.351-1.643-3.821-4.916-4.417-9.828
				c-0.332-2.748-0.263-8.401,0.212-16.949c0.473-8.551,0.475-14.797-0.002-18.742c-0.595-4.91-2.381-7.186-5.357-6.825
				c-4.76,0.577-9.184,5.377-13.259,14.4c-4.079,9.031-5.402,19.45-3.972,31.279c0.567,4.689,1.232,8.308,1.996,10.858
				c-1.918,0.382-3.062,0.596-3.434,0.642c-6.548,0.791-10.209-2.01-10.982-8.408c-0.181-1.484-0.092-7.309,0.263-17.472
				c0.356-10.157,0.173-18.193-0.542-24.109c-0.715-5.913-2.009-11.284-3.875-16.118c4.596,1.183,7.96,3.246,10.091,6.194
				c2.13,2.952,3.442,6.454,3.932,10.509c0.494,4.054,0.616,8.815,0.372,14.278c1.436-8.705,4.428-16.256,8.974-22.655
				c4.551-6.4,9.091-9.876,13.631-10.423C393.014,146.946,397.521,151.76,398.798,162.325"/>
			<path clip-path="url(#SVGID_6_)" fill="#F6F6F6" d="M465.03,124.294c0.592,5.966,3.234,10.226,7.935,12.771
				c4.702,2.55,11.186,3.416,19.457,2.602c8.282-0.818,16.129-3.248,23.545-7.279c0.436,4.408,0.14,7.521-0.907,9.341
				c-1.164,1.985-3.128,3.11-5.906,3.385l-7.025,0.693c-0.102,1.948-0.292,5.749-0.593,11.41
				c-0.304,5.665-0.508,10.186-0.598,13.563c-0.417,9.654-0.327,17.415,0.26,23.284c0.571,5.846,1.908,10.688,4.003,14.495
				c-4.556-1.13-7.78-3.254-9.666-6.362c-1.887-3.12-3.048-6.951-3.505-11.545c-0.454-4.583-0.682-8.662-0.667-12.257
				c-1.79,3.695-4.35,6.554-7.663,8.56c-3.313,2.013-6.712,3.198-10.187,3.538c-5.619,0.553-10.68-0.842-15.166-4.201
				c-4.49-3.362-7.073-8.417-7.732-15.166c-0.561-5.61,1.278-10.978,5.51-16.095c4.236-5.11,10.115-8.653,17.672-10.624
				c-6.081-1.333-10.755-3.735-14.003-7.225c-3.25-3.48-5.075-7.311-5.493-11.512c-0.537-5.463,1.155-10.493,5.074-15.079
				c3.923-4.583,9.136-7.193,15.639-7.835c6.497-0.643,11.635,0.284,15.391,2.78c3.765,2.501,5.864,6.023,6.319,10.569
				c0.317,3.269-0.527,6.347-2.536,9.233c-2.008,2.893-4.866,4.517-8.556,4.879c-1.492,0.148-3.002,0.122-4.53-0.086
				c3.487-4.723,5.021-9.074,4.632-13.047c-0.26-2.632-1.33-4.571-3.21-5.815c-1.88-1.252-3.997-1.762-6.334-1.53
				c-3.699,0.368-6.573,2.014-8.613,4.938C465.536,117.606,464.697,120.814,465.03,124.294 M476.897,182.306
				c6.89-0.683,11.322-4.42,13.312-11.217c1.021-3.403,1.644-7.62,1.86-12.666l0.459-11.775
				c-21.653,2.357-31.84,9.962-30.568,22.818c0.45,4.618,2.046,8.012,4.778,10.181C469.451,181.822,472.847,182.704,476.897,182.306
				"/>
			<path clip-path="url(#SVGID_6_)" fill="#F6F6F6" d="M600.914,138.052c0.038,16.601,0.598,29.328,1.664,38.176
				c1.073,8.853,2.701,15.173,4.88,18.965c-8.325-0.715-14.294-3.25-17.892-7.609c-3.604-4.369-5.907-10.663-6.903-18.906
				c-0.533-4.364-0.898-13.977-1.091-28.836c-17.947-43.587-32.643-72.003-44.092-85.259c3.136-3.578,6.551-5.587,10.248-6.037
				c3.702-0.445,6.706-0.286,9.009,0.48c2.312,0.765,4.645,2.267,7.006,4.504c2.361,2.235,4.804,6.15,7.333,11.751
				c4.875,10.849,11.144,28.109,18.806,51.784l3.702,12.282c9.41-19.835,16.782-38.41,22.13-55.726
				c5.341-17.312,8.074-30.591,8.184-39.828c7.891,4.209,12.366,10.653,13.416,19.318
				C638.359,61.778,626.225,90.091,600.914,138.052"/>
			<path clip-path="url(#SVGID_6_)" fill="#F6F6F6" d="M639.843,123.013c4.354-4.265,9.006-6.696,13.95-7.295
				c4.944-0.597,9.32,1.083,13.125,5.036c3.795,3.955,6.148,9.656,7.049,17.097c0.992,8.186,0.348,15.959-1.93,23.328
				c-2.565,8.167-6.969,14.171-13.22,18.018c-3.359,2.147-7.205,3.478-11.519,4c-6.024,0.734-11.611-1.142-16.762-5.614
				c-5.144-4.475-8.279-11.376-9.412-20.714c-1.126-9.337-0.102-17.67,3.086-25.001c3.196-7.331,8.084-12.751,14.674-16.27
				c1.496-0.178,2.325,0.471,2.502,1.963c-6.774,5.725-10.394,13.864-10.854,24.414
				C632.391,133.596,635.493,127.278,639.843,123.013 M663.418,142.354c-0.883-7.256-2.425-12.354-4.624-15.292
				c-2.207-2.944-5.009-4.209-8.392-3.798c-3.388,0.406-6.586,2.478-9.608,6.198c-3.023,3.73-5.219,8.148-6.599,13.254
				c-1.39,5.116-1.765,10.291-1.129,15.536c0.637,5.25,2.194,9.664,4.662,13.254c2.477,3.589,5.757,5.133,9.852,4.638
				c5.803-0.703,10.107-4.696,12.926-11.983C663.324,156.876,664.295,149.607,663.418,142.354"/>
			<path clip-path="url(#SVGID_6_)" fill="#F6F6F6" d="M727.322,106.249c6.398-0.772,9.997,2.151,10.801,8.773
				c0.144,1.19,0.069,6.503-0.222,15.938c-0.292,9.43-0.036,17.458,0.771,24.082c0.797,6.624,2.211,12.375,4.229,17.264
				c-4.75-1.238-8.201-3.385-10.344-6.45c-2.146-3.06-3.513-7.007-4.096-11.843c-0.228-1.862-0.325-6.114-0.296-12.76
				c-1.208,8.749-3.807,16.296-7.794,22.628s-7.992,9.74-12.007,10.228c-8.483,1.026-13.473-4.635-14.971-16.984
				c-0.494-4.092-0.571-9.877-0.227-17.353c0.338-7.477,0.28-13.115-0.182-16.91c-0.461-3.791-1.442-7.56-2.952-11.303
				c4.76-0.574,8.427-0.19,11.008,1.16c2.584,1.349,4.159,4.365,4.723,9.051c0.303,2.533,0.152,7.834-0.455,15.908
				c-0.604,8.074-0.682,14.013-0.224,17.804c0.667,5.509,2.712,8.05,6.136,7.639c2.822-0.344,5.516-2.917,8.066-7.715
				c2.552-4.8,4.438-10.859,5.664-18.182c1.233-7.319,1.428-14.44,0.59-21.359c-0.378-3.124-0.969-6.11-1.76-8.958
				C725.401,106.562,726.577,106.34,727.322,106.249"/>
			<line clip-path="url(#SVGID_6_)" fill="#F6F6F6" x1="40.724" y1="291.253" x2="641.213" y2="210.572"/>
			<path clip-path="url(#SVGID_6_)" fill="#F6F6F6" d="M39.794,293.938c82.023-11.021,164.044-22.041,246.068-33.062
				c110.072-14.789,220.145-29.578,330.219-44.368c8.065-1.083,16.134-2.167,24.2-3.252c5.148-0.69,9.951-6.458,1.86-5.369
				c-82.024,11.021-164.046,22.041-246.069,33.062C286,255.738,175.928,270.527,65.854,285.317
				c-8.066,1.082-16.133,2.167-24.199,3.252C36.504,289.261,31.705,295.024,39.794,293.938"/>
			<line clip-path="url(#SVGID_6_)" fill="#F6F6F6" x1="155.285" y1="117.903" x2="513.986" y2="69.15"/>
			<path clip-path="url(#SVGID_6_)" fill="#F6F6F6" d="M154.355,120.588c98.869-13.438,197.737-26.875,296.606-40.314
				c20.699-2.812,41.395-5.625,62.095-8.439c5.146-0.698,9.95-6.47,1.86-5.37C416.045,79.902,317.18,93.34,218.311,106.777
				c-20.701,2.815-41.398,5.627-62.096,8.442C151.067,115.918,146.266,121.688,154.355,120.588"/>
			<line clip-path="url(#SVGID_6_)" fill="#F6F6F6" x1="663.209" y1="48.601" x2="757.136" y2="34.698"/>
			<path clip-path="url(#SVGID_6_)" fill="#F6F6F6" d="M662.279,51.286c31.311-4.634,62.619-9.269,93.926-13.903
				c5.122-0.759,9.943-6.568,1.862-5.371c-31.312,4.634-62.62,9.269-93.927,13.904C659.02,46.673,654.197,52.482,662.279,51.286"/>
		</g>
	</g>
</g>
</svg>
