<?xml version="1.0" encoding="utf-8"?>
<!-- Generator: Adobe Illustrator 16.0.0, SVG Export Plug-In . SVG Version: 6.00 Build 0)  -->
<!DOCTYPE svg PUBLIC "-//W3C//DTD SVG 1.1//EN" "http://www.w3.org/Graphics/SVG/1.1/DTD/svg11.dtd">
<svg version="1.1" xmlns="http://www.w3.org/2000/svg" xmlns:xlink="http://www.w3.org/1999/xlink" x="0px" y="0px" width="1280px"
	 height="800px" viewBox="0 0 1280 800" enable-background="new 0 0 1280 800" xml:space="preserve">
<g id="Rules">
</g>
<g id="Github">
	<path fill="#444444" d="M57.5,10C50.596,10,45,15.596,45,22.5S50.596,35,57.5,35S70,29.404,70,22.5S64.404,10,57.5,10z
		 M64.923,29.923c-0.964,0.964-2.087,1.722-3.337,2.25c-0.317,0.135-0.64,0.253-0.967,0.354v-1.874c0-0.984-0.337-1.709-1.014-2.172
		c0.423-0.041,0.812-0.098,1.166-0.172c0.354-0.073,0.728-0.179,1.123-0.316c0.395-0.138,0.749-0.303,1.062-0.495
		c0.313-0.191,0.613-0.439,0.903-0.745c0.289-0.303,0.531-0.65,0.726-1.037s0.35-0.851,0.464-1.392
		c0.115-0.541,0.171-1.138,0.171-1.788c0-1.262-0.41-2.336-1.232-3.223c0.375-0.977,0.334-2.039-0.122-3.186l-0.306-0.037
		c-0.212-0.024-0.592,0.064-1.141,0.269s-1.166,0.538-1.849,1.001c-0.969-0.269-1.973-0.403-3.015-0.403
		c-1.05,0-2.051,0.134-3.003,0.403c-0.431-0.293-0.84-0.536-1.226-0.727c-0.387-0.191-0.696-0.321-0.929-0.391
		c-0.232-0.07-0.447-0.112-0.646-0.128c-0.199-0.017-0.328-0.021-0.385-0.013c-0.057,0.008-0.098,0.016-0.122,0.024
		c-0.456,1.156-0.496,2.218-0.122,3.186c-0.822,0.887-1.233,1.961-1.233,3.223c0,0.651,0.057,1.247,0.171,1.789
		c0.114,0.542,0.269,1.004,0.464,1.392c0.195,0.386,0.438,0.732,0.727,1.037s0.59,0.553,0.903,0.745
		c0.313,0.19,0.667,0.355,1.062,0.494c0.395,0.138,0.769,0.244,1.124,0.317c0.355,0.072,0.742,0.13,1.166,0.171
		c-0.667,0.456-1,1.18-1,2.173v1.91c-0.369-0.109-0.732-0.239-1.089-0.391c-1.25-0.529-2.373-1.286-3.337-2.25
		c-0.965-0.965-1.722-2.087-2.25-3.338c-0.547-1.292-0.825-2.667-0.825-4.086s0.277-2.793,0.825-4.086
		c0.528-1.25,1.286-2.373,2.25-3.337c0.965-0.964,2.087-1.722,3.337-2.25c1.293-0.547,2.668-0.824,4.086-0.824
		c1.417,0,2.793,0.277,4.086,0.824c1.25,0.529,2.373,1.286,3.337,2.25c0.964,0.965,1.722,2.087,2.251,3.337
		C67.723,19.706,68,21.082,68,22.499c0,1.418-0.277,2.793-0.824,4.086c-0.529,1.25-1.286,2.373-2.251,3.338L64.923,29.923z"/>
</g>
<g id="Facebook">
	<path fill="#444444" d="M22.5,10C15.596,10,10,15.596,10,22.5S15.596,35,22.5,35v-9.375h-3.125V22.5H22.5v-2.344
		c0-2.157,1.75-3.906,3.906-3.906h3.906v3.125h-3.906c-0.431,0-0.781,0.351-0.781,0.781V22.5h4.297l-0.781,3.125h-3.516v8.981
		C31.016,33.218,35,28.324,35,22.5C35,15.596,29.404,10,22.5,10z"/>
</g>
<g id="Logo_400_x2A_200">
	<g>
		<g>
			<defs>
				<rect id="SVGID_1_" x="9.668" y="45.166" width="799.834" height="799.834"/>
			</defs>
			<clipPath id="SVGID_2_">
				<use xlink:href="#SVGID_1_"  overflow="visible"/>
			</clipPath>
			<g clip-path="url(#SVGID_2_)">
				<defs>
					<rect id="SVGID_3_" x="9.668" y="45.166" width="799.834" height="799.834"/>
				</defs>
				<clipPath id="SVGID_4_">
					<use xlink:href="#SVGID_3_"  overflow="visible"/>
				</clipPath>
				<path clip-path="url(#SVGID_4_)" fill="#F6F6F6" d="M287.702,386.442c-0.48-0.624-1.088-1.104-1.824-1.44
					c-0.735-0.336-1.496-0.504-2.279-0.504c-0.961,0-1.828,0.181-2.604,0.54c-0.776,0.36-1.44,0.852-1.992,1.476
					c-0.551,0.624-0.979,1.355-1.284,2.195c-0.304,0.841-0.456,1.74-0.456,2.7c0,0.896,0.145,1.744,0.433,2.543
					s0.704,1.503,1.248,2.112c0.543,0.607,1.208,1.087,1.992,1.439c0.783,0.353,1.671,0.528,2.664,0.528
					c0.975,0,1.831-0.2,2.566-0.6c0.736-0.4,1.36-0.959,1.872-1.68l1.944,1.464c-0.128,0.176-0.353,0.428-0.672,0.756
					c-0.32,0.328-0.744,0.655-1.272,0.983c-0.528,0.328-1.164,0.616-1.908,0.864c-0.744,0.248-1.603,0.372-2.579,0.372
					c-1.344,0-2.555-0.256-3.635-0.767c-1.08-0.513-2-1.185-2.759-2.017c-0.759-0.832-1.339-1.771-1.74-2.819
					c-0.4-1.048-0.6-2.107-0.6-3.179c0-1.312,0.216-2.523,0.647-3.635c0.433-1.112,1.036-2.072,1.812-2.879
					c0.775-0.809,1.708-1.437,2.795-1.884c1.088-0.448,2.288-0.672,3.599-0.672c1.12,0,2.219,0.217,3.299,0.648
					c1.08,0.432,1.964,1.096,2.652,1.992L287.702,386.442z"/>
				<path clip-path="url(#SVGID_4_)" fill="#F6F6F6" d="M300.563,400.192c-1.295,0-2.488-0.229-3.575-0.685
					c-1.09-0.456-2.019-1.083-2.795-1.883c-0.776-0.799-1.383-1.744-1.824-2.832c-0.439-1.087-0.66-2.263-0.66-3.526
					c0-1.264,0.221-2.44,0.66-3.528c0.44-1.087,1.047-2.032,1.824-2.831c0.776-0.8,1.706-1.428,2.795-1.884
					c1.087-0.456,2.28-0.684,3.575-0.684c1.296,0,2.488,0.229,3.576,0.684c1.087,0.456,2.019,1.084,2.795,1.884
					c0.775,0.799,1.383,1.744,1.824,2.831c0.439,1.088,0.659,2.264,0.659,3.528c0,1.263-0.219,2.439-0.659,3.526
					c-0.44,1.088-1.049,2.032-1.824,2.832c-0.776,0.8-1.708,1.428-2.795,1.883C303.051,399.963,301.859,400.192,300.563,400.192
					 M300.563,398.032c0.976,0,1.855-0.18,2.639-0.54c0.784-0.36,1.456-0.843,2.016-1.452c0.56-0.607,0.991-1.324,1.296-2.147
					c0.304-0.824,0.456-1.7,0.456-2.627c0-0.929-0.152-1.804-0.456-2.628c-0.305-0.823-0.736-1.539-1.296-2.147
					c-0.56-0.608-1.232-1.092-2.016-1.452c-0.784-0.36-1.664-0.54-2.639-0.54c-0.975,0-1.856,0.18-2.639,0.54
					c-0.784,0.36-1.456,0.843-2.016,1.452c-0.56,0.608-0.992,1.324-1.295,2.147c-0.304,0.824-0.456,1.7-0.456,2.628
					c0,0.928,0.152,1.803,0.456,2.627c0.304,0.823,0.736,1.54,1.295,2.147c0.561,0.608,1.232,1.091,2.016,1.452
					C298.708,397.853,299.588,398.032,300.563,398.032"/>
				<path clip-path="url(#SVGID_4_)" fill="#F6F6F6" d="M312.344,382.771h5.927c1.2,0,2.251,0.135,3.155,0.408
					c0.903,0.271,1.688,0.636,2.351,1.092c0.664,0.456,1.216,0.98,1.656,1.572c0.44,0.592,0.788,1.2,1.043,1.824
					c0.256,0.624,0.44,1.247,0.552,1.871c0.112,0.624,0.168,1.2,0.168,1.728c0,1.087-0.2,2.139-0.6,3.156
					c-0.4,1.015-0.992,1.919-1.776,2.711c-0.784,0.792-1.755,1.428-2.916,1.908c-1.16,0.479-2.5,0.719-4.019,0.719h-5.543V382.771z
					 M314.647,397.6h2.904c0.976,0,1.899-0.132,2.771-0.396c0.872-0.263,1.636-0.659,2.292-1.187c0.656-0.528,1.175-1.188,1.56-1.98
					c0.384-0.792,0.575-1.716,0.575-2.771c0-0.544-0.088-1.18-0.264-1.908c-0.176-0.728-0.508-1.42-0.996-2.076
					c-0.487-0.655-1.164-1.212-2.027-1.668c-0.864-0.456-1.984-0.683-3.359-0.683h-3.456V397.6z"/>
				<polygon clip-path="url(#SVGID_4_)" fill="#F6F6F6" points="330.509,382.771 341.474,382.771 341.474,384.931 332.812,384.931 
					332.812,389.993 340.875,389.993 340.875,392.153 332.812,392.153 332.812,397.6 341.907,397.6 341.907,399.759 
					330.509,399.759 				"/>
				<path clip-path="url(#SVGID_4_)" fill="#F6F6F6" d="M346.322,399.903c-0.432,0-0.804-0.156-1.116-0.467
					c-0.312-0.312-0.467-0.685-0.467-1.116s0.156-0.804,0.467-1.116c0.312-0.311,0.685-0.467,1.116-0.467s0.803,0.156,1.116,0.467
					c0.312,0.312,0.468,0.685,0.468,1.116s-0.156,0.804-0.468,1.116C347.125,399.747,346.753,399.903,346.322,399.903"/>
				<path clip-path="url(#SVGID_4_)" fill="#F6F6F6" d="M364.797,382.771h5.926c1.2,0,2.252,0.135,3.156,0.408
					c0.903,0.271,1.687,0.636,2.351,1.092s1.216,0.98,1.656,1.572c0.439,0.592,0.788,1.2,1.044,1.824
					c0.256,0.624,0.439,1.247,0.552,1.871c0.112,0.624,0.168,1.2,0.168,1.728c0,1.087-0.2,2.139-0.6,3.156
					c-0.4,1.015-0.992,1.919-1.776,2.711c-0.784,0.792-1.756,1.428-2.916,1.908c-1.16,0.479-2.5,0.719-4.019,0.719h-5.543V382.771z
					 M367.101,397.6h2.904c0.975,0,1.899-0.132,2.771-0.396c0.872-0.263,1.635-0.659,2.292-1.187c0.656-0.528,1.175-1.188,1.56-1.98
					c0.384-0.792,0.575-1.716,0.575-2.771c0-0.544-0.088-1.18-0.264-1.908c-0.176-0.728-0.508-1.42-0.996-2.076
					c-0.487-0.655-1.164-1.212-2.027-1.668c-0.864-0.456-1.984-0.683-3.36-0.683h-3.455V397.6z"/>
				<polygon clip-path="url(#SVGID_4_)" fill="#F6F6F6" points="382.961,382.771 393.927,382.771 393.927,384.931 385.265,384.931 
					385.265,389.993 393.328,389.993 393.328,392.153 385.265,392.153 385.265,397.6 394.359,397.6 394.359,399.759 
					382.961,399.759 				"/>
				<path clip-path="url(#SVGID_4_)" fill="#F6F6F6" d="M398.127,396.208c0.416,0.624,0.948,1.083,1.595,1.379
					c0.648,0.296,1.316,0.444,2.003,0.444c0.385,0,0.776-0.061,1.177-0.181c0.397-0.119,0.763-0.3,1.091-0.54
					c0.328-0.239,0.596-0.535,0.804-0.887c0.206-0.352,0.312-0.76,0.312-1.224c0-0.656-0.208-1.156-0.624-1.5
					s-0.933-0.632-1.548-0.864c-0.615-0.231-1.287-0.456-2.015-0.671c-0.728-0.216-1.4-0.516-2.016-0.9
					c-0.616-0.384-1.132-0.899-1.547-1.547c-0.416-0.647-0.624-1.523-0.624-2.627c0-0.496,0.107-1.023,0.323-1.584
					c0.216-0.559,0.557-1.072,1.021-1.536s1.059-0.852,1.788-1.164c0.728-0.312,1.603-0.468,2.627-0.468
					c0.926,0,1.815,0.128,2.664,0.384c0.847,0.255,1.591,0.776,2.231,1.56l-1.872,1.704c-0.288-0.448-0.695-0.808-1.224-1.08
					c-0.528-0.272-1.127-0.408-1.799-0.408c-0.641,0-1.172,0.084-1.596,0.252c-0.424,0.168-0.766,0.384-1.02,0.647
					c-0.256,0.265-0.436,0.549-0.54,0.853c-0.104,0.304-0.156,0.584-0.156,0.84c0,0.719,0.208,1.272,0.624,1.656
					s0.933,0.696,1.547,0.936c0.616,0.24,1.288,0.456,2.017,0.648c0.727,0.191,1.399,0.46,2.015,0.804
					c0.616,0.344,1.131,0.809,1.547,1.392c0.416,0.584,0.624,1.388,0.624,2.411c0,0.816-0.155,1.553-0.468,2.208
					c-0.312,0.656-0.731,1.208-1.259,1.656c-0.528,0.448-1.152,0.792-1.872,1.032c-0.719,0.24-1.488,0.36-2.303,0.36
					c-1.087,0-2.12-0.192-3.096-0.576c-0.976-0.383-1.752-0.976-2.328-1.776L398.127,396.208z"/>
				<rect x="410.962" y="382.77" clip-path="url(#SVGID_4_)" fill="#F6F6F6" width="2.303" height="16.988"/>
				<path clip-path="url(#SVGID_4_)" fill="#F6F6F6" d="M432.104,390.257v8.375c-0.416,0.256-0.887,0.479-1.416,0.672
					c-0.53,0.192-1.076,0.356-1.644,0.492c-0.567,0.136-1.144,0.236-1.729,0.3c-0.582,0.064-1.129,0.096-1.643,0.096
					c-1.438,0-2.722-0.239-3.852-0.72c-1.126-0.479-2.078-1.127-2.853-1.944c-0.776-0.815-1.368-1.763-1.776-2.843
					c-0.408-1.08-0.612-2.22-0.612-3.419c0-1.263,0.221-2.439,0.66-3.528c0.438-1.087,1.047-2.031,1.826-2.831
					c0.771-0.8,1.706-1.428,2.793-1.884c1.087-0.456,2.28-0.683,3.575-0.683c1.565,0,2.847,0.196,3.839,0.587
					c0.992,0.392,1.824,0.932,2.495,1.62l-1.631,1.751c-0.704-0.672-1.448-1.139-2.232-1.404c-0.784-0.264-1.607-0.396-2.471-0.396
					c-0.976,0-1.856,0.18-2.64,0.54c-0.785,0.359-1.458,0.843-2.015,1.451c-0.56,0.608-0.992,1.324-1.295,2.148
					c-0.306,0.824-0.456,1.7-0.456,2.627c0,0.96,0.168,1.852,0.504,2.675c0.336,0.824,0.797,1.54,1.392,2.148
					c0.59,0.607,1.287,1.083,2.085,1.427c0.802,0.344,1.672,0.517,2.617,0.517c0.816,0,1.588-0.076,2.316-0.229
					c0.726-0.152,1.348-0.372,1.86-0.66v-4.727h-3.768v-2.16H432.104z"/>
				<polygon clip-path="url(#SVGID_4_)" fill="#F6F6F6" points="436.302,382.771 439.325,382.771 448.683,396.736 448.733,396.736 
					448.733,382.771 451.035,382.771 451.035,399.759 448.107,399.759 438.653,385.794 438.605,385.794 438.605,399.759 
					436.302,399.759 				"/>
				<path clip-path="url(#SVGID_4_)" fill="#F6F6F6" d="M456.554,399.903c-0.432,0-0.802-0.156-1.116-0.467
					c-0.311-0.312-0.467-0.685-0.467-1.116s0.156-0.804,0.467-1.116c0.314-0.311,0.685-0.467,1.116-0.467s0.802,0.156,1.116,0.467
					c0.311,0.312,0.467,0.685,0.467,1.116s-0.156,0.804-0.467,1.116C457.355,399.747,456.985,399.903,456.554,399.903"/>
				<path clip-path="url(#SVGID_4_)" fill="#F6F6F6" d="M475.416,382.771h5.974c1.086,0,1.982,0.148,2.688,0.444
					c0.701,0.296,1.26,0.672,1.668,1.128c0.405,0.456,0.689,0.968,0.849,1.536c0.162,0.567,0.242,1.116,0.242,1.644
					c0,0.528-0.08,1.076-0.242,1.644c-0.16,0.567-0.444,1.08-0.849,1.536c-0.408,0.456-0.967,0.832-1.668,1.128
					c-0.706,0.296-1.602,0.443-2.688,0.443h-3.671v7.487h-2.303V382.771z M477.719,390.257h3.024c0.445,0,0.889-0.036,1.331-0.108
					c0.438-0.071,0.832-0.204,1.177-0.395c0.343-0.192,0.618-0.468,0.828-0.828c0.206-0.36,0.312-0.828,0.312-1.404
					c0-0.576-0.105-1.044-0.312-1.403c-0.21-0.36-0.484-0.637-0.828-0.828c-0.345-0.192-0.738-0.324-1.177-0.396
					c-0.441-0.072-0.885-0.107-1.331-0.107h-3.024V390.257z"/>
				<path clip-path="url(#SVGID_4_)" fill="#F6F6F6" d="M489.644,382.771h5.974c1.088,0,1.984,0.148,2.688,0.444
					c0.702,0.296,1.262,0.672,1.668,1.128c0.408,0.456,0.689,0.968,0.849,1.536c0.162,0.567,0.244,1.116,0.244,1.644
					c0,0.543-0.098,1.068-0.29,1.572s-0.468,0.96-0.828,1.368c-0.359,0.408-0.8,0.752-1.32,1.032
					c-0.52,0.279-1.101,0.451-1.739,0.516l4.822,7.75h-2.881l-4.318-7.487h-2.566v7.487h-2.303V382.771z M491.947,390.257h3.024
					c0.447,0,0.889-0.036,1.332-0.108c0.439-0.071,0.832-0.204,1.176-0.395c0.343-0.192,0.62-0.468,0.828-0.828
					c0.206-0.36,0.312-0.828,0.312-1.404c0-0.576-0.105-1.044-0.312-1.403c-0.208-0.36-0.484-0.637-0.828-0.828
					c-0.344-0.192-0.736-0.324-1.176-0.396c-0.442-0.072-0.885-0.107-1.332-0.107h-3.024V390.257z"/>
				<rect x="504.304" y="382.77" clip-path="url(#SVGID_4_)" fill="#F6F6F6" width="2.303" height="16.988"/>
				<polygon clip-path="url(#SVGID_4_)" fill="#F6F6F6" points="510.974,382.771 513.998,382.771 523.355,396.736 523.403,396.736 
					523.403,382.771 525.707,382.771 525.707,399.759 522.779,399.759 513.325,385.794 513.277,385.794 513.277,399.759 
					510.974,399.759 				"/>
				<polygon clip-path="url(#SVGID_4_)" fill="#F6F6F6" points="533.625,384.931 528.155,384.931 528.155,382.771 541.4,382.771 
					541.4,384.931 535.927,384.931 535.927,399.759 533.625,399.759 				"/>
				<path clip-path="url(#SVGID_4_)" fill="#F6F6F6" d="M542.335,399.903c-0.432,0-0.804-0.156-1.116-0.467
					c-0.312-0.312-0.468-0.685-0.468-1.116s0.156-0.804,0.468-1.116c0.312-0.311,0.685-0.467,1.116-0.467
					c0.431,0,0.803,0.156,1.116,0.467c0.312,0.312,0.468,0.685,0.468,1.116s-0.156,0.804-0.468,1.116
					C543.138,399.747,542.766,399.903,542.335,399.903"/>
			</g>
			<g clip-path="url(#SVGID_2_)">
				<defs>
					<rect id="SVGID_5_" x="9.668" y="45.166" width="799.834" height="799.834"/>
				</defs>
				<clipPath id="SVGID_6_">
					<use xlink:href="#SVGID_5_"  overflow="visible"/>
				</clipPath>
				<path clip-path="url(#SVGID_6_)" fill="#F6F6F6" d="M89.582,206.784c4.104,2.887,8.608,5.691,13.507,8.415
					c4.899,2.721,9.8,5.479,14.711,8.264c4.907,2.784,9.42,5.688,13.541,8.693c9.328,6.754,14.563,14.831,15.699,24.203
					c1.404,11.598-1.838,21.824-9.716,30.662c-7.882,8.838-19.04,14.14-33.478,15.88c-14.437,1.75-25.938-0.179-34.504-5.774
					c-8.562-5.604-13.391-12.902-14.483-21.91c-0.804-6.665,0.515-12.297,3.966-16.914c3.445-4.607,8.314-7.298,14.612-8.061
					c1.726-0.208,3.419-0.158,5.083,0.143c-3.124,6.258-4.28,12.695-3.483,19.29c0.798,6.602,3.761,11.971,8.897,16.104
					c5.132,4.14,12.262,5.655,21.394,4.552c6.537-0.792,12.125-3.506,16.762-8.137c4.636-4.621,6.519-10.519,5.655-17.674
					c-0.568-4.691-2.667-9.1-6.297-13.234c-3.629-4.129-7.938-7.644-12.921-10.549c-4.985-2.897-10.448-6.157-16.391-9.752
					c-5.946-3.599-11.439-7.092-16.482-10.49c-5.043-3.397-9.45-7.749-13.224-13.049c-3.771-5.301-6.033-11.036-6.776-17.208
					c-1.42-11.722,1.434-21.489,8.566-29.3c7.128-7.81,18.216-12.627,33.275-14.45c12.215-1.478,22.199,0.6,29.958,6.23
					c7.75,5.637,12.053,11.944,12.897,18.91c0.844,6.975-0.35,12.906-3.571,17.804c-3.232,4.897-8.111,7.743-14.647,8.532
					c-2.223,0.272-4.415,0.288-6.568,0.044c5.265-7.146,7.468-14.299,6.602-21.459c-0.866-7.152-3.739-12.279-8.622-15.382
					c-4.883-3.101-10.746-4.241-17.596-3.412c-6.849,0.828-12.439,3.509-16.775,8.041c-4.333,4.533-6.014,10.808-5.044,18.824
					C75.101,192.641,80.25,200.029,89.582,206.784"/>
				<path clip-path="url(#SVGID_6_)" fill="#F6F6F6" d="M162.616,281.506c-2.049-2.887-3.339-6.533-3.871-10.924
					c-0.532-4.396-0.7-10.757-0.498-19.099c0.198-8.334,0.026-14.772-0.526-19.317c-0.548-4.544-1.197-8.021-1.941-10.419
					c1.322-0.308,2.393-0.521,3.213-0.615c3.351-0.406,5.861,0.044,7.533,1.352c1.67,1.314,2.713,3.682,3.127,7.107
					c0.136,1.118-0.068,7.092-0.608,17.924c-0.544,10.834-0.416,19.7,0.382,26.594c0.801,6.891,1.766,11.29,2.902,13.191
					C167.903,286.327,164.667,284.389,162.616,281.506 M164.581,209.232c-6.256,0.76-9.644-0.986-10.156-5.233
					c-0.179-1.485,0.126-3.641,0.918-6.457c1.602-0.496,2.998-0.817,4.191-0.961c6.255-0.758,9.642,0.986,10.154,5.235
					c0.182,1.488-0.124,3.637-0.918,6.455C167.165,208.771,165.77,209.087,164.581,209.232"/>
				<path clip-path="url(#SVGID_6_)" fill="#F6F6F6" d="M241.452,234.221c-1.545,3.775-2.657,8.46-3.343,14.062
					c-0.683,5.6-0.732,10.817-0.143,15.659c0.582,4.841,1.354,9.323,2.304,13.435c-1.917,0.384-3.064,0.596-3.436,0.64
					c-6.48,0.786-10.101-1.989-10.87-8.315c-0.277-2.306-0.172-8.141,0.322-17.495c0.494-9.354,0.46-16.327-0.094-20.902
					c-0.557-4.583-2.545-6.668-5.972-6.249c-4.245,0.511-8.067,5.133-11.471,13.855c-3.401,8.728-4.396,18.932-2.979,30.629
					c0.45,3.719,1.154,7.646,2.104,11.757c-1.919,0.38-3.066,0.601-3.436,0.638c-6.478,0.792-10.104-1.985-10.869-8.318
					c-0.101-0.814-0.011-6.458,0.275-16.917c0.282-10.464,0.059-18.69-0.666-24.691c-0.724-5.993-2.023-11.41-3.891-16.247
					c4.673,1.173,8.08,3.255,10.217,6.249c2.135,2.988,3.492,6.829,4.057,11.522c0.29,2.381,0.394,5.433,0.314,9.144
					c1.632-7.754,4.385-14.363,8.256-19.818c3.875-5.455,7.672-8.408,11.396-8.858c8.342-1.01,13.295,4.929,14.854,17.808
					c2.032-6.289,4.646-11.383,7.841-15.287c3.189-3.9,6.354-6.039,9.479-6.415c4.541-0.552,7.909,0.42,10.104,2.91
					c2.185,2.5,3.565,6.069,4.131,10.723c0.562,4.659,0.626,11.278,0.193,19.871c-0.436,8.594-0.42,14.807,0.045,18.638
					c0.464,3.839,1.285,6.577,2.465,8.202c1.182,1.636,3.003,2.943,5.465,3.935c-0.96,0.185-2.332,0.392-4.121,0.604
					c-4.765,0.578-8.405,0.018-10.916-1.673c-2.507-1.702-4.053-4.938-4.631-9.7c-0.332-2.759-0.263-8.416,0.214-16.973
					c0.476-8.56,0.474-14.814-0.004-18.758c-0.599-4.917-2.604-7.17-6.031-6.756c-1.937,0.24-3.898,1.536-5.877,3.891
					C244.761,227.371,242.996,230.441,241.452,234.221"/>
				<path clip-path="url(#SVGID_6_)" fill="#F6F6F6" d="M307.858,209.742c4.357-4.269,9.011-6.703,13.966-7.3
					c4.951-0.603,9.33,1.082,13.135,5.041c3.803,3.959,6.159,9.666,7.058,17.111c0.994,8.195,0.348,15.976-1.933,23.356
					c-2.564,8.171-6.973,14.186-13.232,18.038c-3.366,2.148-7.212,3.482-11.533,4.004c-6.029,0.728-11.622-1.14-16.775-5.625
					c-5.153-4.473-8.29-11.387-9.422-20.733c-1.134-9.342-0.103-17.689,3.091-25.027c3.191-7.336,8.088-12.767,14.691-16.287
					c1.487-0.182,2.323,0.472,2.503,1.963c-6.787,5.737-10.412,13.881-10.87,24.443C300.392,220.339,303.501,214.01,307.858,209.742
					 M331.456,229.106c-0.877-7.264-2.421-12.366-4.629-15.313c-2.211-2.942-5.009-4.211-8.396-3.801
					c-3.389,0.412-6.596,2.482-9.62,6.208c-3.025,3.732-5.232,8.153-6.612,13.27c-1.385,5.117-1.757,10.299-1.12,15.546
					c0.634,5.253,2.191,9.676,4.667,13.27c2.471,3.593,5.757,5.14,9.855,4.643c5.807-0.704,10.122-4.703,12.941-11.994
					C331.364,243.642,332.335,236.365,331.456,229.106"/>
				<path clip-path="url(#SVGID_6_)" fill="#F6F6F6" d="M408.882,207.66c0.418,3.425,0.422,9.564,0.02,18.418
					c-0.401,8.851-0.365,15.253,0.114,19.194c0.48,3.947,1.309,6.743,2.49,8.375c1.174,1.629,3.001,2.937,5.461,3.933
					c-0.96,0.187-2.335,0.393-4.117,0.606c-5.073,0.612-8.774,0.098-11.128-1.544c-2.353-1.644-3.825-4.921-4.421-9.838
					c-0.332-2.751-0.264-8.41,0.212-16.967c0.474-8.56,0.476-14.812-0.002-18.762c-0.596-4.915-2.383-7.193-5.363-6.833
					c-4.765,0.578-9.193,5.383-13.272,14.415c-4.083,9.04-5.407,19.471-3.976,31.312c0.568,4.694,1.234,8.316,1.998,10.87
					c-1.919,0.382-3.065,0.596-3.437,0.642c-6.555,0.792-10.22-2.011-10.994-8.416c-0.181-1.486-0.092-7.317,0.264-17.491
					c0.356-10.167,0.174-18.212-0.542-24.135c-0.716-5.918-2.011-11.295-3.879-16.134c4.601,1.184,7.968,3.25,10.101,6.2
					c2.133,2.955,3.446,6.46,3.936,10.52c0.494,4.059,0.616,8.824,0.372,14.293c1.437-8.714,4.433-16.273,8.983-22.679
					c4.556-6.407,9.101-9.887,13.646-10.435C403.091,192.266,407.604,197.084,408.882,207.66"/>
				<path clip-path="url(#SVGID_6_)" fill="#F6F6F6" d="M475.184,169.589c0.592,5.973,3.238,10.236,7.943,12.784
					c4.707,2.553,11.197,3.419,19.477,2.605c8.291-0.819,16.146-3.251,23.569-7.287c0.436,4.413,0.14,7.529-0.908,9.351
					c-1.166,1.988-3.131,3.113-5.913,3.389l-7.033,0.694c-0.102,1.95-0.292,5.755-0.594,11.421
					c-0.303,5.671-0.507,10.196-0.597,13.577c-0.418,9.664-0.328,17.433,0.26,23.308c0.572,5.852,1.91,10.699,4.007,14.51
					c-4.561-1.131-7.789-3.257-9.676-6.369c-1.889-3.124-3.051-6.958-3.509-11.557c-0.454-4.588-0.683-8.671-0.668-12.27
					c-1.792,3.7-4.354,6.561-7.67,8.568c-3.317,2.016-6.719,3.202-10.198,3.542c-5.625,0.554-10.69-0.843-15.181-4.205
					c-4.495-3.366-7.081-8.426-7.741-15.182c-0.562-5.616,1.28-10.989,5.516-16.112c4.241-5.115,10.126-8.662,17.69-10.634
					c-6.087-1.334-10.766-3.739-14.018-7.232c-3.253-3.484-5.081-7.319-5.499-11.524c-0.538-5.469,1.156-10.504,5.079-15.095
					c3.927-4.587,9.146-7.201,15.655-7.843c6.504-0.643,11.647,0.284,15.407,2.784c3.769,2.503,5.871,6.029,6.326,10.58
					c0.318,3.271-0.527,6.353-2.539,9.242c-2.011,2.896-4.871,4.521-8.565,4.885c-1.494,0.148-3.005,0.122-4.535-0.086
					c3.492-4.729,5.027-9.084,4.637-13.061c-0.26-2.635-1.332-4.575-3.213-5.821c-1.882-1.254-4.001-1.763-6.341-1.532
					c-3.703,0.368-6.581,2.017-8.622,4.943C475.689,162.895,474.85,166.106,475.184,169.589 M487.063,227.661
					c6.897-0.683,11.333-4.425,13.325-11.228c1.021-3.406,1.646-7.628,1.862-12.679l0.46-11.788
					c-21.676,2.36-31.873,9.973-30.6,22.842c0.45,4.622,2.047,8.02,4.783,10.191C479.608,227.177,483.008,228.06,487.063,227.661"/>
				<path clip-path="url(#SVGID_6_)" fill="#F6F6F6" d="M611.209,183.362c0.038,16.619,0.598,29.358,1.666,38.216
					c1.074,8.862,2.703,15.189,4.884,18.984c-8.334-0.716-14.308-3.253-17.91-7.617c-3.607-4.373-5.913-10.673-6.911-18.926
					c-0.533-4.369-0.899-13.991-1.092-28.866c-17.966-43.633-32.677-72.079-44.138-85.349c3.139-3.582,6.558-5.593,10.26-6.042
					c3.705-0.446,6.712-0.286,9.018,0.48c2.314,0.766,4.649,2.269,7.013,4.509c2.364,2.238,4.809,6.157,7.34,11.763
					c4.881,10.86,11.156,28.139,18.826,51.838l3.705,12.295c9.42-19.856,16.8-38.45,22.154-55.784
					c5.347-17.331,8.082-30.624,8.191-39.87c7.899,4.213,12.38,10.664,13.43,19.338
					C648.693,107.008,636.545,135.351,611.209,183.362"/>
				<path clip-path="url(#SVGID_6_)" fill="#F6F6F6" d="M650.179,168.307c4.357-4.269,9.015-6.703,13.964-7.302
					c4.95-0.598,9.33,1.083,13.139,5.041c3.799,3.959,6.155,9.666,7.057,17.115c0.993,8.194,0.348,15.976-1.932,23.353
					c-2.568,8.175-6.977,14.186-13.233,18.036c-3.362,2.15-7.213,3.481-11.531,4.005c-6.03,0.734-11.623-1.143-16.778-5.62
					c-5.149-4.479-8.289-11.388-9.422-20.736c-1.128-9.347-0.103-17.688,3.089-25.027c3.2-7.338,8.092-12.765,14.688-16.287
					c1.498-0.178,2.328,0.472,2.506,1.965c-6.782,5.731-10.405,13.879-10.865,24.439
					C642.718,178.901,645.824,172.576,650.179,168.307 M673.778,187.669c-0.884-7.264-2.428-12.368-4.629-15.309
					c-2.21-2.948-5.014-4.214-8.4-3.802c-3.392,0.406-6.593,2.48-9.618,6.205c-3.027,3.733-5.225,8.157-6.606,13.268
					c-1.391,5.121-1.767,10.302-1.13,15.553c0.638,5.254,2.197,9.674,4.667,13.268c2.479,3.593,5.763,5.139,9.861,4.643
					c5.81-0.704,10.118-4.701,12.939-11.996C673.685,202.206,674.656,194.929,673.778,187.669"/>
				<path clip-path="url(#SVGID_6_)" fill="#F6F6F6" d="M737.749,151.525c6.405-0.772,10.008,2.154,10.812,8.782
					c0.144,1.191,0.069,6.51-0.223,15.955c-0.292,9.439-0.036,17.476,0.772,24.106c0.798,6.631,2.213,12.388,4.234,17.283
					c-4.755-1.239-8.21-3.389-10.355-6.457c-2.148-3.063-3.516-7.015-4.1-11.855c-0.228-1.864-0.325-6.121-0.296-12.774
					c-1.21,8.758-3.811,16.313-7.802,22.651c-3.992,6.339-8.001,9.75-12.021,10.238c-8.491,1.027-13.486-4.64-14.986-17.001
					c-0.493-4.097-0.571-9.887-0.227-17.371c0.338-7.485,0.28-13.128-0.181-16.927c-0.462-3.795-1.444-7.568-2.956-11.315
					c4.765-0.574,8.436-0.19,11.02,1.161c2.586,1.351,4.163,4.369,4.728,9.061c0.304,2.536,0.152,7.842-0.456,15.925
					c-0.604,8.082-0.682,14.027-0.224,17.822c0.668,5.515,2.715,8.058,6.143,7.647c2.825-0.345,5.521-2.92,8.074-7.723
					c2.555-4.805,4.443-10.87,5.671-18.2c1.233-7.327,1.429-14.455,0.59-21.381c-0.378-3.127-0.97-6.117-1.762-8.968
					C735.826,151.839,737.003,151.617,737.749,151.525"/>
				<line clip-path="url(#SVGID_6_)" fill="#F6F6F6" x1="50.434" y1="336.723" x2="651.549" y2="255.957"/>
				<path clip-path="url(#SVGID_6_)" fill="#F6F6F6" d="M49.503,339.411c82.109-11.032,164.216-22.064,246.325-33.096
					c110.187-14.805,220.374-29.609,330.563-44.415c8.074-1.084,16.15-2.169,24.226-3.255c5.154-0.691,9.962-6.464,1.862-5.375
					c-82.11,11.032-164.218,22.063-246.327,33.096C295.966,301.17,185.779,315.975,75.59,330.781
					c-8.075,1.083-16.15,2.169-24.225,3.255C46.21,334.728,41.405,340.499,49.503,339.411"/>
				<line clip-path="url(#SVGID_6_)" fill="#F6F6F6" x1="165.114" y1="163.191" x2="524.19" y2="114.388"/>
				<path clip-path="url(#SVGID_6_)" fill="#F6F6F6" d="M164.184,165.879c98.972-13.452,197.943-26.903,296.916-40.356
					c20.72-2.815,41.438-5.631,62.159-8.448c5.151-0.699,9.96-6.477,1.862-5.375c-98.974,13.451-197.942,26.902-296.914,40.354
					c-20.722,2.818-41.441,5.632-62.161,8.45C160.893,161.205,156.086,166.98,164.184,165.879"/>
				<line clip-path="url(#SVGID_6_)" fill="#F6F6F6" x1="673.569" y1="93.817" x2="767.594" y2="79.9"/>
				<path clip-path="url(#SVGID_6_)" fill="#F6F6F6" d="M672.638,96.505c31.343-4.639,62.686-9.278,94.024-13.917
					c5.127-0.76,9.954-6.575,1.864-5.377c-31.345,4.639-62.686,9.279-94.024,13.919C669.375,91.888,664.548,97.703,672.638,96.505"
					/>
			</g>
		</g>
	</g>
</g>
</svg>
