<?xml version="1.0" encoding="utf-8"?>
<!-- Generator: Adobe Illustrator 16.0.0, SVG Export Plug-In . SVG Version: 6.00 Build 0)  -->
<!DOCTYPE svg PUBLIC "-//W3C//DTD SVG 1.1//EN" "http://www.w3.org/Graphics/SVG/1.1/DTD/svg11.dtd">
<svg version="1.1" xmlns="http://www.w3.org/2000/svg" xmlns:xlink="http://www.w3.org/1999/xlink" x="0px" y="0px" width="1280px"
	 height="800px" viewBox="0 0 1280 800" enable-background="new 0 0 1280 800" xml:space="preserve">
<g id="Rules">
</g>
<g id="Github">
	<path fill="#444444" d="M57.5,10C50.596,10,45,15.596,45,22.5S50.596,35,57.5,35S70,29.404,70,22.5S64.404,10,57.5,10z
		 M64.923,29.923c-0.964,0.964-2.087,1.722-3.337,2.25c-0.317,0.135-0.64,0.253-0.967,0.354v-1.874c0-0.984-0.337-1.709-1.014-2.172
		c0.423-0.041,0.812-0.098,1.166-0.172c0.354-0.073,0.728-0.179,1.123-0.316c0.395-0.138,0.749-0.303,1.062-0.495
		c0.313-0.191,0.613-0.439,0.903-0.745c0.289-0.303,0.531-0.65,0.726-1.037s0.35-0.851,0.464-1.392
		c0.115-0.541,0.171-1.138,0.171-1.788c0-1.262-0.41-2.336-1.232-3.223c0.375-0.977,0.334-2.039-0.122-3.186l-0.306-0.037
		c-0.212-0.024-0.592,0.064-1.141,0.269s-1.166,0.538-1.849,1.001c-0.969-0.269-1.973-0.403-3.015-0.403
		c-1.05,0-2.051,0.134-3.003,0.403c-0.431-0.293-0.84-0.536-1.226-0.727c-0.387-0.191-0.696-0.321-0.929-0.391
		c-0.232-0.07-0.447-0.112-0.646-0.128c-0.199-0.017-0.328-0.021-0.385-0.013c-0.057,0.008-0.098,0.016-0.122,0.024
		c-0.456,1.156-0.496,2.218-0.122,3.186c-0.822,0.887-1.233,1.961-1.233,3.223c0,0.651,0.057,1.247,0.171,1.789
		c0.114,0.542,0.269,1.004,0.464,1.392c0.195,0.386,0.438,0.732,0.727,1.037s0.59,0.553,0.903,0.745
		c0.313,0.19,0.667,0.355,1.062,0.494c0.395,0.138,0.769,0.244,1.124,0.317c0.355,0.072,0.742,0.13,1.166,0.171
		c-0.667,0.456-1,1.18-1,2.173v1.91c-0.369-0.109-0.732-0.239-1.089-0.391c-1.25-0.529-2.373-1.286-3.337-2.25
		c-0.965-0.965-1.722-2.087-2.25-3.338c-0.547-1.292-0.825-2.667-0.825-4.086s0.277-2.793,0.825-4.086
		c0.528-1.25,1.286-2.373,2.25-3.337c0.965-0.964,2.087-1.722,3.337-2.25c1.293-0.547,2.668-0.824,4.086-0.824
		c1.417,0,2.793,0.277,4.086,0.824c1.25,0.529,2.373,1.286,3.337,2.25c0.964,0.965,1.722,2.087,2.251,3.337
		C67.723,19.706,68,21.082,68,22.499c0,1.418-0.277,2.793-0.824,4.086c-0.529,1.25-1.286,2.373-2.251,3.338L64.923,29.923z"/>
</g>
<g id="Facebook">
	<path fill="#444444" d="M22.5,10C15.596,10,10,15.596,10,22.5S15.596,35,22.5,35v-9.375h-3.125V22.5H22.5v-2.344
		c0-2.157,1.75-3.906,3.906-3.906h3.906v3.125h-3.906c-0.431,0-0.781,0.351-0.781,0.781V22.5h4.297l-0.781,3.125h-3.516v8.981
		C31.016,33.218,35,28.324,35,22.5C35,15.596,29.404,10,22.5,10z"/>
</g>
<g id="Logo_400_x2A_200">
	<g>
		<g>
			<defs>
				<rect id="SVGID_1_" x="9.667" y="45.166" width="400" height="400"/>
			</defs>
			<clipPath id="SVGID_2_">
				<use xlink:href="#SVGID_1_"  overflow="visible"/>
			</clipPath>
			<g clip-path="url(#SVGID_2_)">
				<defs>
					<rect id="SVGID_3_" x="9.667" y="45.166" width="400" height="400"/>
				</defs>
				<clipPath id="SVGID_4_">
					<use xlink:href="#SVGID_3_"  overflow="visible"/>
				</clipPath>
				<path clip-path="url(#SVGID_4_)" fill="#F6F6F6" d="M148.712,215.839c-0.24-0.312-0.544-0.552-0.912-0.72
					c-0.368-0.168-0.748-0.252-1.14-0.252c-0.48,0-0.914,0.09-1.302,0.27c-0.388,0.18-0.72,0.426-0.996,0.738
					s-0.49,0.678-0.642,1.098c-0.152,0.42-0.228,0.87-0.228,1.35c0,0.448,0.072,0.872,0.216,1.272s0.352,0.752,0.624,1.056
					c0.272,0.304,0.604,0.544,0.996,0.72c0.392,0.176,0.836,0.264,1.332,0.264c0.488,0,0.916-0.1,1.284-0.3
					c0.368-0.2,0.68-0.48,0.936-0.84l0.972,0.732c-0.064,0.088-0.176,0.214-0.336,0.378c-0.16,0.164-0.372,0.328-0.636,0.492
					s-0.582,0.308-0.954,0.432s-0.802,0.186-1.29,0.186c-0.672,0-1.278-0.128-1.818-0.384c-0.54-0.256-1-0.592-1.38-1.008
					s-0.67-0.886-0.87-1.41c-0.2-0.524-0.3-1.054-0.3-1.59c0-0.656,0.108-1.262,0.324-1.818c0.216-0.556,0.518-1.036,0.906-1.44
					c0.388-0.404,0.854-0.718,1.398-0.942c0.544-0.224,1.144-0.336,1.8-0.336c0.56,0,1.11,0.108,1.65,0.324s0.982,0.548,1.326,0.996
					L148.712,215.839z"/>
				<path clip-path="url(#SVGID_4_)" fill="#F6F6F6" d="M155.145,222.716c-0.648,0-1.244-0.114-1.788-0.342
					c-0.545-0.228-1.01-0.542-1.398-0.942s-0.692-0.872-0.912-1.416c-0.22-0.544-0.33-1.132-0.33-1.764
					c0-0.632,0.11-1.22,0.33-1.764c0.22-0.544,0.524-1.016,0.912-1.416s0.853-0.714,1.398-0.942c0.544-0.228,1.14-0.342,1.788-0.342
					s1.244,0.114,1.788,0.342s1.01,0.542,1.398,0.942c0.388,0.4,0.692,0.872,0.912,1.416c0.22,0.544,0.33,1.132,0.33,1.764
					c0,0.632-0.11,1.22-0.33,1.764c-0.22,0.544-0.524,1.016-0.912,1.416c-0.388,0.4-0.854,0.714-1.398,0.942
					S155.792,222.716,155.145,222.716 M155.145,221.636c0.488,0,0.928-0.09,1.32-0.27s0.728-0.422,1.008-0.726
					c0.28-0.304,0.496-0.662,0.648-1.074c0.152-0.412,0.228-0.85,0.228-1.314c0-0.464-0.076-0.902-0.228-1.314
					c-0.152-0.412-0.368-0.77-0.648-1.074c-0.28-0.304-0.616-0.546-1.008-0.726s-0.832-0.27-1.32-0.27s-0.928,0.09-1.32,0.27
					c-0.392,0.18-0.728,0.422-1.008,0.726c-0.28,0.304-0.496,0.662-0.648,1.074c-0.152,0.412-0.228,0.85-0.228,1.314
					c0,0.464,0.076,0.902,0.228,1.314c0.152,0.412,0.368,0.77,0.648,1.074c0.28,0.304,0.616,0.546,1.008,0.726
					C154.216,221.546,154.657,221.636,155.145,221.636"/>
				<path clip-path="url(#SVGID_4_)" fill="#F6F6F6" d="M161.036,214.003H164c0.6,0,1.126,0.068,1.578,0.204
					c0.452,0.136,0.844,0.318,1.176,0.546s0.608,0.49,0.828,0.786s0.394,0.6,0.522,0.912s0.22,0.624,0.276,0.936
					c0.056,0.312,0.084,0.6,0.084,0.864c0,0.544-0.1,1.07-0.3,1.578c-0.2,0.508-0.496,0.96-0.888,1.356s-0.878,0.714-1.458,0.954
					c-0.58,0.24-1.25,0.36-2.01,0.36h-2.772V214.003z M162.188,221.419h1.452c0.488,0,0.95-0.066,1.386-0.198
					c0.436-0.132,0.818-0.33,1.146-0.594c0.328-0.264,0.588-0.594,0.78-0.99c0.192-0.396,0.288-0.858,0.288-1.386
					c0-0.272-0.044-0.59-0.132-0.954c-0.088-0.364-0.254-0.71-0.498-1.038c-0.244-0.328-0.582-0.606-1.014-0.834
					c-0.432-0.228-0.992-0.342-1.68-0.342h-1.728V221.419z"/>
				<polygon clip-path="url(#SVGID_4_)" fill="#F6F6F6" points="170.12,214.003 175.604,214.003 175.604,215.083 171.272,215.083 
					171.272,217.615 175.304,217.615 175.304,218.695 171.272,218.695 171.272,221.419 175.82,221.419 175.82,222.5 170.12,222.5 
									"/>
				<path clip-path="url(#SVGID_4_)" fill="#F6F6F6" d="M178.028,222.571c-0.216,0-0.402-0.078-0.558-0.234
					c-0.156-0.156-0.234-0.342-0.234-0.558s0.078-0.402,0.234-0.558c0.156-0.156,0.342-0.234,0.558-0.234s0.402,0.078,0.558,0.234
					c0.156,0.156,0.234,0.342,0.234,0.558s-0.078,0.402-0.234,0.558C178.43,222.493,178.244,222.571,178.028,222.571"/>
				<path clip-path="url(#SVGID_4_)" fill="#F6F6F6" d="M187.268,214.003h2.964c0.6,0,1.126,0.068,1.578,0.204
					c0.452,0.136,0.844,0.318,1.176,0.546s0.608,0.49,0.828,0.786c0.22,0.296,0.394,0.6,0.522,0.912s0.22,0.624,0.276,0.936
					s0.084,0.6,0.084,0.864c0,0.544-0.1,1.07-0.3,1.578c-0.2,0.508-0.496,0.96-0.888,1.356s-0.878,0.714-1.458,0.954
					c-0.58,0.24-1.25,0.36-2.01,0.36h-2.772V214.003z M188.42,221.419h1.452c0.488,0,0.95-0.066,1.386-0.198
					c0.436-0.132,0.818-0.33,1.146-0.594s0.588-0.594,0.78-0.99c0.192-0.396,0.288-0.858,0.288-1.386
					c0-0.272-0.044-0.59-0.132-0.954c-0.088-0.364-0.254-0.71-0.498-1.038c-0.244-0.328-0.582-0.606-1.014-0.834
					c-0.432-0.228-0.992-0.342-1.68-0.342h-1.728V221.419z"/>
				<polygon clip-path="url(#SVGID_4_)" fill="#F6F6F6" points="196.352,214.003 201.836,214.003 201.836,215.083 197.504,215.083 
					197.504,217.615 201.536,217.615 201.536,218.695 197.504,218.695 197.504,221.419 202.052,221.419 202.052,222.5 
					196.352,222.5 				"/>
				<path clip-path="url(#SVGID_4_)" fill="#F6F6F6" d="M203.937,220.724c0.208,0.312,0.474,0.542,0.798,0.69
					c0.324,0.148,0.658,0.222,1.002,0.222c0.192,0,0.388-0.03,0.588-0.09c0.199-0.06,0.382-0.15,0.546-0.27
					c0.164-0.12,0.298-0.268,0.402-0.444c0.103-0.176,0.156-0.38,0.156-0.612c0-0.328-0.104-0.578-0.312-0.75
					s-0.466-0.316-0.774-0.432c-0.308-0.116-0.644-0.228-1.008-0.336c-0.364-0.108-0.7-0.258-1.008-0.45
					c-0.308-0.192-0.566-0.45-0.774-0.774c-0.208-0.324-0.312-0.762-0.312-1.314c0-0.248,0.054-0.512,0.162-0.792
					c0.108-0.28,0.278-0.536,0.51-0.768s0.53-0.426,0.894-0.582c0.364-0.156,0.802-0.234,1.314-0.234
					c0.463,0,0.908,0.064,1.332,0.192c0.424,0.128,0.796,0.388,1.116,0.78l-0.936,0.852c-0.144-0.224-0.348-0.404-0.612-0.54
					c-0.264-0.136-0.564-0.204-0.9-0.204c-0.32,0-0.586,0.042-0.798,0.126c-0.212,0.084-0.383,0.192-0.51,0.324
					c-0.128,0.132-0.218,0.274-0.27,0.426c-0.052,0.152-0.078,0.292-0.078,0.42c0,0.36,0.104,0.636,0.312,0.828
					s0.466,0.348,0.774,0.468c0.308,0.12,0.644,0.228,1.008,0.324c0.364,0.096,0.7,0.23,1.008,0.402s0.566,0.404,0.774,0.696
					s0.312,0.694,0.312,1.206c0,0.408-0.078,0.776-0.234,1.104c-0.156,0.328-0.366,0.604-0.63,0.828s-0.576,0.396-0.936,0.516
					s-0.744,0.18-1.152,0.18c-0.544,0-1.06-0.096-1.548-0.288c-0.488-0.192-0.876-0.488-1.164-0.888L203.937,220.724z"/>
				<rect x="210.355" y="214.003" clip-path="url(#SVGID_4_)" fill="#F6F6F6" width="1.152" height="8.496"/>
				<path clip-path="url(#SVGID_4_)" fill="#F6F6F6" d="M220.928,217.748v4.188c-0.208,0.128-0.444,0.24-0.708,0.336
					c-0.265,0.096-0.538,0.178-0.822,0.246c-0.284,0.068-0.572,0.118-0.865,0.15c-0.291,0.032-0.565,0.048-0.822,0.048
					c-0.719,0-1.361-0.12-1.926-0.36c-0.563-0.24-1.039-0.564-1.427-0.972c-0.388-0.408-0.684-0.882-0.888-1.422
					s-0.306-1.11-0.306-1.71c0-0.632,0.11-1.22,0.33-1.764c0.219-0.544,0.524-1.016,0.913-1.416c0.386-0.4,0.853-0.714,1.397-0.942
					s1.14-0.342,1.788-0.342c0.783,0,1.424,0.098,1.92,0.294s0.912,0.466,1.248,0.81l-0.816,0.876
					c-0.352-0.336-0.724-0.57-1.116-0.702c-0.392-0.132-0.804-0.198-1.236-0.198c-0.488,0-0.928,0.09-1.32,0.27
					c-0.393,0.18-0.729,0.422-1.008,0.726c-0.28,0.304-0.496,0.662-0.648,1.074c-0.153,0.412-0.228,0.85-0.228,1.314
					c0,0.48,0.084,0.926,0.252,1.338c0.168,0.412,0.399,0.77,0.696,1.074c0.295,0.304,0.644,0.542,1.043,0.714
					c0.401,0.172,0.836,0.258,1.309,0.258c0.408,0,0.794-0.038,1.158-0.114c0.363-0.076,0.674-0.186,0.93-0.33v-2.364h-1.884v-1.08
					H220.928z"/>
				<polygon clip-path="url(#SVGID_4_)" fill="#F6F6F6" points="223.028,214.003 224.54,214.003 229.22,220.987 229.245,220.987 
					229.245,214.003 230.396,214.003 230.396,222.5 228.932,222.5 224.204,215.516 224.18,215.516 224.18,222.5 223.028,222.5 				
					"/>
				<path clip-path="url(#SVGID_4_)" fill="#F6F6F6" d="M233.156,222.571c-0.216,0-0.401-0.078-0.558-0.234
					c-0.156-0.156-0.234-0.342-0.234-0.558s0.078-0.402,0.234-0.558c0.157-0.156,0.342-0.234,0.558-0.234s0.401,0.078,0.558,0.234
					c0.156,0.156,0.234,0.342,0.234,0.558s-0.078,0.402-0.234,0.558C233.557,222.493,233.372,222.571,233.156,222.571"/>
				<path clip-path="url(#SVGID_4_)" fill="#F6F6F6" d="M242.589,214.003h2.988c0.543,0,0.991,0.074,1.344,0.222
					c0.351,0.148,0.63,0.336,0.834,0.564c0.203,0.228,0.345,0.484,0.425,0.768c0.081,0.284,0.121,0.558,0.121,0.822
					c0,0.264-0.04,0.538-0.121,0.822c-0.08,0.284-0.222,0.54-0.425,0.768c-0.204,0.228-0.483,0.416-0.834,0.564
					c-0.353,0.148-0.801,0.222-1.344,0.222h-1.836v3.744h-1.152V214.003z M243.741,217.748h1.512c0.223,0,0.445-0.018,0.666-0.054
					c0.219-0.036,0.416-0.102,0.588-0.198c0.172-0.096,0.309-0.234,0.414-0.414c0.103-0.18,0.156-0.414,0.156-0.702
					s-0.053-0.522-0.156-0.702c-0.105-0.18-0.242-0.318-0.414-0.414c-0.172-0.096-0.369-0.162-0.588-0.198
					c-0.221-0.036-0.443-0.054-0.666-0.054h-1.512V217.748z"/>
				<path clip-path="url(#SVGID_4_)" fill="#F6F6F6" d="M249.704,214.003h2.988c0.544,0,0.992,0.074,1.344,0.222
					c0.351,0.148,0.631,0.336,0.834,0.564c0.204,0.228,0.345,0.484,0.425,0.768c0.081,0.284,0.122,0.558,0.122,0.822
					c0,0.272-0.049,0.534-0.145,0.786s-0.234,0.48-0.414,0.684c-0.18,0.204-0.4,0.376-0.66,0.516c-0.26,0.14-0.551,0.226-0.87,0.258
					l2.412,3.876h-1.441l-2.16-3.744h-1.283v3.744h-1.152V214.003z M250.856,217.748h1.512c0.224,0,0.445-0.018,0.666-0.054
					c0.22-0.036,0.416-0.102,0.588-0.198c0.172-0.096,0.31-0.234,0.414-0.414c0.103-0.18,0.156-0.414,0.156-0.702
					s-0.053-0.522-0.156-0.702c-0.104-0.18-0.242-0.318-0.414-0.414c-0.172-0.096-0.368-0.162-0.588-0.198
					c-0.221-0.036-0.442-0.054-0.666-0.054h-1.512V217.748z"/>
				<rect x="257.036" y="214.003" clip-path="url(#SVGID_4_)" fill="#F6F6F6" width="1.152" height="8.496"/>
				<polygon clip-path="url(#SVGID_4_)" fill="#F6F6F6" points="260.372,214.003 261.884,214.003 266.563,220.987 266.587,220.987 
					266.587,214.003 267.74,214.003 267.74,222.5 266.275,222.5 261.547,215.516 261.523,215.516 261.523,222.5 260.372,222.5 				
					"/>
				<polygon clip-path="url(#SVGID_4_)" fill="#F6F6F6" points="271.7,215.083 268.964,215.083 268.964,214.003 275.588,214.003 
					275.588,215.083 272.851,215.083 272.851,222.5 271.7,222.5 				"/>
				<path clip-path="url(#SVGID_4_)" fill="#F6F6F6" d="M276.055,222.571c-0.216,0-0.402-0.078-0.558-0.234
					c-0.156-0.156-0.234-0.342-0.234-0.558s0.078-0.402,0.234-0.558c0.156-0.156,0.342-0.234,0.558-0.234s0.402,0.078,0.558,0.234
					c0.156,0.156,0.234,0.342,0.234,0.558s-0.078,0.402-0.234,0.558C276.457,222.493,276.271,222.571,276.055,222.571"/>
			</g>
			<g clip-path="url(#SVGID_2_)">
				<defs>
					<rect id="SVGID_5_" x="9.667" y="45.166" width="400" height="400"/>
				</defs>
				<clipPath id="SVGID_6_">
					<use xlink:href="#SVGID_5_"  overflow="visible"/>
				</clipPath>
				<path clip-path="url(#SVGID_6_)" fill="#F6F6F6" d="M49.632,125.992c2.053,1.444,4.305,2.846,6.755,4.208
					c2.45,1.361,4.901,2.74,7.357,4.133c2.454,1.392,4.711,2.844,6.772,4.347c4.665,3.378,7.283,7.417,7.851,12.104
					c0.702,5.8-0.919,10.914-4.859,15.334c-3.942,4.42-9.522,7.071-16.742,7.942c-7.22,0.875-12.972-0.09-17.256-2.888
					c-4.282-2.802-6.697-6.452-7.243-10.957c-0.402-3.333,0.257-6.15,1.983-8.459c1.723-2.304,4.158-3.65,7.308-4.031
					c0.863-0.104,1.71-0.079,2.542,0.071c-1.562,3.13-2.141,6.349-1.742,9.647c0.399,3.302,1.881,5.987,4.45,8.054
					c2.566,2.07,6.132,2.828,10.699,2.276c3.269-0.396,6.064-1.753,8.383-4.069c2.318-2.311,3.26-5.261,2.828-8.839
					c-0.284-2.346-1.334-4.551-3.149-6.618c-1.815-2.065-3.97-3.823-6.462-5.276c-2.493-1.449-5.225-3.079-8.197-4.877
					c-2.974-1.8-5.721-3.547-8.243-5.246c-2.522-1.699-4.726-3.875-6.613-6.526c-1.886-2.651-3.017-5.519-3.389-8.606
					c-0.71-5.862,0.717-10.747,4.284-14.653c3.565-3.906,9.11-6.315,16.641-7.227c6.109-0.739,11.102,0.3,14.982,3.116
					c3.876,2.819,6.028,5.973,6.45,9.457c0.422,3.488-0.175,6.454-1.786,8.904c-1.616,2.449-4.056,3.872-7.325,4.267
					c-1.112,0.136-2.208,0.144-3.285,0.022c2.633-3.574,3.735-7.151,3.302-10.732c-0.433-3.577-1.87-6.141-4.312-7.693
					c-2.442-1.551-5.374-2.121-8.8-1.706c-3.425,0.414-6.221,1.755-8.389,4.021c-2.167,2.267-3.008,5.405-2.523,9.414
					C42.39,118.919,44.965,122.614,49.632,125.992"/>
				<path clip-path="url(#SVGID_6_)" fill="#F6F6F6" d="M86.156,163.36c-1.025-1.444-1.67-3.267-1.936-5.463
					c-0.266-2.198-0.35-5.38-0.249-9.551c0.099-4.168,0.013-7.388-0.263-9.661c-0.274-2.272-0.599-4.011-0.971-5.21
					c0.661-0.154,1.197-0.261,1.607-0.308c1.676-0.203,2.931,0.022,3.767,0.676c0.835,0.657,1.357,1.841,1.564,3.554
					c0.068,0.559-0.034,3.547-0.304,8.964c-0.272,5.418-0.208,9.852,0.191,13.3c0.4,3.446,0.883,5.646,1.451,6.597
					C88.8,165.771,87.182,164.802,86.156,163.36 M87.139,127.216c-3.129,0.38-4.823-0.493-5.079-2.617
					c-0.09-0.743,0.063-1.821,0.459-3.229c0.801-0.248,1.499-0.409,2.096-0.481c3.128-0.379,4.822,0.493,5.078,2.618
					c0.091,0.744-0.062,1.819-0.459,3.228C88.431,126.985,87.733,127.144,87.139,127.216"/>
				<path clip-path="url(#SVGID_6_)" fill="#F6F6F6" d="M125.583,139.713c-0.773,1.888-1.329,4.231-1.672,7.032
					c-0.341,2.801-0.366,5.41-0.071,7.831c0.291,2.421,0.677,4.663,1.152,6.719c-0.959,0.192-1.532,0.298-1.718,0.32
					c-3.241,0.393-5.052-0.995-5.436-4.159c-0.139-1.153-0.086-4.071,0.161-8.749c0.247-4.678,0.23-8.165-0.047-10.453
					c-0.278-2.292-1.273-3.335-2.986-3.125c-2.123,0.256-4.035,2.567-5.737,6.929c-1.701,4.365-2.198,9.468-1.49,15.318
					c0.225,1.86,0.577,3.824,1.052,5.88c-0.96,0.19-1.533,0.3-1.718,0.319c-3.24,0.396-5.053-0.993-5.436-4.16
					c-0.05-0.407-0.005-3.23,0.138-8.46c0.141-5.233,0.029-9.347-0.333-12.348c-0.362-2.997-1.012-5.706-1.946-8.125
					c2.337,0.587,4.041,1.628,5.11,3.125c1.068,1.494,1.746,3.415,2.029,5.762c0.145,1.191,0.197,2.717,0.157,4.573
					c0.816-3.878,2.193-7.183,4.129-9.911c1.938-2.728,3.837-4.205,5.699-4.43c4.172-0.505,6.649,2.465,7.429,8.906
					c1.016-3.145,2.323-5.693,3.921-7.645c1.595-1.951,3.178-3.02,4.741-3.208c2.271-0.276,3.955,0.21,5.053,1.455
					c1.093,1.25,1.783,3.035,2.066,5.363c0.281,2.33,0.313,5.64,0.097,9.938c-0.218,4.298-0.21,7.405,0.022,9.321
					c0.232,1.92,0.643,3.289,1.233,4.102c0.591,0.818,1.502,1.472,2.733,1.968c-0.48,0.092-1.166,0.196-2.061,0.302
					c-2.383,0.289-4.203,0.009-5.459-0.837c-1.254-0.851-2.027-2.469-2.316-4.851c-0.166-1.38-0.131-4.209,0.107-8.488
					c0.238-4.281,0.237-7.409-0.002-9.381c-0.299-2.459-1.302-3.586-3.016-3.379c-0.969,0.12-1.949,0.768-2.939,1.946
					C127.237,136.287,126.354,137.823,125.583,139.713"/>
				<path clip-path="url(#SVGID_6_)" fill="#F6F6F6" d="M158.792,127.471c2.179-2.135,4.506-3.352,6.984-3.651
					c2.476-0.302,4.666,0.541,6.569,2.521c1.902,1.98,3.08,4.834,3.53,8.557c0.497,4.099,0.174,7.99-0.967,11.681
					c-1.282,4.086-3.487,7.094-6.617,9.021c-1.684,1.074-3.607,1.741-5.768,2.002c-3.015,0.364-5.812-0.57-8.389-2.813
					c-2.577-2.237-4.146-5.695-4.712-10.369c-0.567-4.672-0.051-8.846,1.546-12.516c1.596-3.669,4.045-6.385,7.347-8.145
					c0.744-0.091,1.162,0.236,1.252,0.982c-3.394,2.869-5.207,6.942-5.436,12.224C155.059,132.771,156.614,129.605,158.792,127.471
					 M170.594,137.155c-0.439-3.633-1.211-6.184-2.315-7.658c-1.106-1.472-2.505-2.106-4.199-1.901
					c-1.695,0.206-3.299,1.241-4.811,3.105c-1.513,1.866-2.617,4.077-3.307,6.636c-0.692,2.559-0.878,5.151-0.56,7.775
					c0.317,2.627,1.096,4.839,2.334,6.636c1.236,1.797,2.879,2.571,4.929,2.322c2.904-0.352,5.062-2.352,6.472-5.998
					C170.548,144.424,171.034,140.785,170.594,137.155"/>
				<path clip-path="url(#SVGID_6_)" fill="#F6F6F6" d="M209.315,126.43c0.209,1.713,0.211,4.783,0.01,9.211
					c-0.201,4.426-0.183,7.628,0.057,9.599c0.24,1.974,0.654,3.372,1.245,4.188c0.587,0.815,1.501,1.469,2.731,1.967
					c-0.48,0.093-1.168,0.196-2.059,0.303c-2.537,0.306-4.388,0.049-5.565-0.772c-1.177-0.822-1.913-2.461-2.211-4.92
					c-0.166-1.376-0.132-4.206,0.106-8.485c0.237-4.281,0.238-7.408-0.001-9.383c-0.298-2.458-1.192-3.597-2.682-3.417
					c-2.383,0.289-4.598,2.692-6.638,7.209c-2.042,4.521-2.704,9.737-1.988,15.659c0.284,2.348,0.617,4.159,0.999,5.436
					c-0.96,0.191-1.533,0.298-1.719,0.321c-3.278,0.396-5.111-1.006-5.498-4.209c-0.09-0.743-0.046-3.659,0.132-8.747
					c0.178-5.085,0.087-9.108-0.271-12.07c-0.358-2.96-1.006-5.649-1.94-8.069c2.301,0.592,3.985,1.625,5.052,3.101
					c1.066,1.478,1.723,3.231,1.968,5.261c0.247,2.03,0.308,4.413,0.186,7.148c0.719-4.358,2.217-8.138,4.493-11.342
					c2.278-3.204,4.551-4.944,6.824-5.218C206.419,118.731,208.676,121.141,209.315,126.43"/>
				<path clip-path="url(#SVGID_6_)" fill="#F6F6F6" d="M242.473,107.391c0.296,2.987,1.619,5.119,3.972,6.393
					c2.354,1.277,5.6,1.71,9.741,1.303c4.146-0.41,8.074-1.626,11.787-3.644c0.218,2.207,0.07,3.765-0.454,4.676
					c-0.583,0.994-1.566,1.557-2.957,1.695l-3.517,0.347c-0.051,0.975-0.146,2.878-0.297,5.712c-0.152,2.836-0.254,5.099-0.299,6.79
					c-0.209,4.833-0.164,8.718,0.13,11.656c0.286,2.927,0.955,5.351,2.004,7.257c-2.281-0.566-3.895-1.629-4.839-3.185
					c-0.945-1.562-1.526-3.48-1.755-5.78c-0.227-2.294-0.341-4.336-0.334-6.136c-0.896,1.85-2.177,3.281-3.836,4.285
					c-1.659,1.008-3.36,1.601-5.1,1.771c-2.813,0.277-5.346-0.421-7.592-2.103c-2.248-1.683-3.541-4.214-3.871-7.592
					c-0.281-2.809,0.64-5.496,2.758-8.058c2.121-2.558,5.064-4.332,8.847-5.318c-3.044-0.667-5.384-1.87-7.01-3.617
					c-1.627-1.742-2.541-3.66-2.75-5.763c-0.269-2.735,0.578-5.253,2.54-7.549c1.964-2.294,4.574-3.601,7.829-3.922
					c3.253-0.322,5.825,0.142,7.705,1.392c1.885,1.252,2.936,3.015,3.164,5.291c0.159,1.636-0.264,3.177-1.27,4.622
					c-1.005,1.448-2.436,2.261-4.283,2.443c-0.747,0.074-1.503,0.061-2.268-0.043c1.746-2.365,2.514-4.543,2.319-6.532
					c-0.13-1.318-0.666-2.288-1.607-2.911c-0.941-0.627-2.001-0.882-3.171-0.766c-1.852,0.184-3.291,1.008-4.312,2.472
					C242.726,104.042,242.306,105.648,242.473,107.391 M248.414,136.433c3.449-0.342,5.668-2.213,6.664-5.615
					c0.511-1.704,0.823-3.815,0.931-6.341l0.23-5.895c-10.84,1.18-15.94,4.987-15.303,11.423c0.225,2.312,1.024,4.011,2.392,5.097
					C244.686,136.19,246.386,136.632,248.414,136.433"/>
				<path clip-path="url(#SVGID_6_)" fill="#F6F6F6" d="M310.5,114.278c0.019,8.311,0.299,14.682,0.833,19.112
					c0.537,4.432,1.352,7.596,2.443,9.494c-4.168-0.358-7.156-1.627-8.957-3.809c-1.804-2.187-2.957-5.338-3.456-9.465
					c-0.267-2.185-0.45-6.997-0.546-14.436c-8.985-21.821-16.342-36.047-22.074-42.683c1.57-1.791,3.28-2.797,5.131-3.022
					c1.853-0.223,3.357-0.143,4.51,0.24c1.157,0.383,2.325,1.135,3.507,2.255c1.182,1.119,2.405,3.079,3.671,5.883
					c2.441,5.431,5.579,14.072,9.415,25.924l1.853,6.149c4.711-9.93,8.402-19.229,11.079-27.898
					c2.674-8.667,4.042-15.315,4.097-19.939c3.95,2.107,6.191,5.333,6.716,9.671C329.246,76.093,323.17,90.268,310.5,114.278"/>
				<path clip-path="url(#SVGID_6_)" fill="#F6F6F6" d="M329.988,106.749c2.179-2.135,4.508-3.352,6.983-3.652
					c2.476-0.299,4.666,0.542,6.571,2.521c1.9,1.98,3.078,4.834,3.529,8.559c0.497,4.098,0.174,7.99-0.966,11.679
					c-1.284,4.088-3.489,7.094-6.618,9.02c-1.682,1.075-3.607,1.741-5.767,2.003c-3.016,0.367-5.813-0.572-8.391-2.811
					c-2.575-2.24-4.145-5.695-4.712-10.37c-0.564-4.674-0.051-8.846,1.545-12.516c1.6-3.67,4.047-6.384,7.346-8.145
					c0.749-0.089,1.164,0.236,1.253,0.983c-3.392,2.866-5.204,6.941-5.434,12.222C326.257,112.047,327.811,108.884,329.988,106.749
					 M341.791,116.432c-0.442-3.633-1.214-6.185-2.315-7.656c-1.105-1.474-2.507-2.107-4.201-1.901
					c-1.696,0.203-3.297,1.24-4.81,3.103c-1.514,1.867-2.613,4.079-3.304,6.635c-0.695,2.561-0.883,5.152-0.565,7.778
					c0.319,2.628,1.099,4.838,2.334,6.635c1.24,1.797,2.882,2.57,4.932,2.322c2.905-0.352,5.06-2.351,6.471-5.999
					C341.744,123.702,342.229,120.063,341.791,116.432"/>
				<path clip-path="url(#SVGID_6_)" fill="#F6F6F6" d="M373.783,98.356c3.203-0.386,5.005,1.077,5.407,4.392
					c0.072,0.596,0.035,3.256-0.111,7.979c-0.146,4.721-0.018,8.74,0.386,12.056c0.399,3.316,1.107,6.195,2.118,8.643
					c-2.378-0.62-4.106-1.695-5.179-3.229c-1.074-1.532-1.758-3.508-2.05-5.929c-0.114-0.932-0.163-3.061-0.148-6.388
					c-0.605,4.38-1.906,8.158-3.902,11.328s-4.001,4.876-6.011,5.12c-4.247,0.514-6.745-2.32-7.495-8.502
					c-0.247-2.049-0.286-4.945-0.113-8.688c0.169-3.743,0.14-6.565-0.091-8.465c-0.231-1.898-0.722-3.785-1.478-5.659
					c2.383-0.287,4.219-0.095,5.511,0.581c1.293,0.675,2.082,2.185,2.364,4.531c0.152,1.268,0.076,3.922-0.228,7.964
					c-0.302,4.042-0.341,7.015-0.112,8.913c0.334,2.758,1.358,4.03,3.072,3.824c1.413-0.172,2.761-1.46,4.038-3.862
					c1.278-2.403,2.222-5.436,2.836-9.102c0.617-3.664,0.715-7.229,0.295-10.693c-0.189-1.564-0.485-3.059-0.881-4.485
					C372.821,98.514,373.41,98.402,373.783,98.356"/>
				<line clip-path="url(#SVGID_6_)" fill="#F6F6F6" x1="30.054" y1="190.975" x2="330.674" y2="150.583"/>
				<path clip-path="url(#SVGID_6_)" fill="#F6F6F6" d="M29.588,192.319c41.063-5.517,82.125-11.034,123.188-16.551
					c55.105-7.404,110.21-14.808,165.316-22.212c4.038-0.542,8.077-1.085,12.115-1.628c2.578-0.346,4.982-3.233,0.932-2.688
					c-41.064,5.517-82.126,11.034-123.189,16.551c-55.105,7.404-110.21,14.808-165.316,22.212
					c-4.038,0.542-8.077,1.085-12.115,1.628C27.941,189.977,25.539,192.863,29.588,192.319"/>
				<line clip-path="url(#SVGID_6_)" fill="#F6F6F6" x1="87.406" y1="104.191" x2="266.981" y2="79.784"/>
				<path clip-path="url(#SVGID_6_)" fill="#F6F6F6" d="M86.94,105.535c49.496-6.727,98.992-13.454,148.489-20.182
					c10.362-1.408,20.723-2.816,31.086-4.225c2.576-0.35,4.981-3.239,0.931-2.688c-49.497,6.727-98.992,13.454-148.488,20.181
					c-10.363,1.409-20.725,2.817-31.087,4.226C85.294,103.197,82.891,106.086,86.94,105.535"/>
				<line clip-path="url(#SVGID_6_)" fill="#F6F6F6" x1="341.686" y1="69.497" x2="388.708" y2="62.537"/>
				<path clip-path="url(#SVGID_6_)" fill="#F6F6F6" d="M341.22,70.841c15.675-2.32,31.349-4.64,47.022-6.96
					c2.564-0.38,4.978-3.288,0.932-2.689c-15.675,2.32-31.349,4.64-47.022,6.961C339.588,68.532,337.174,71.44,341.22,70.841"/>
			</g>
		</g>
	</g>
</g>
</svg>
