<?xml version="1.0" encoding="utf-8"?>
<!-- Generator: Adobe Illustrator 16.0.0, SVG Export Plug-In . SVG Version: 6.00 Build 0)  -->
<!DOCTYPE svg PUBLIC "-//W3C//DTD SVG 1.1//EN" "http://www.w3.org/Graphics/SVG/1.1/DTD/svg11.dtd">
<svg version="1.1" xmlns="http://www.w3.org/2000/svg" xmlns:xlink="http://www.w3.org/1999/xlink" x="0px" y="0px" width="1280px"
	 height="800px" viewBox="0 0 1280 800" enable-background="new 0 0 1280 800" xml:space="preserve">
<g id="Rules">
</g>
<g id="Github">
	<path fill="#4D4D4D" d="M57.5,10C50.596,10,45,15.596,45,22.5S50.596,35,57.5,35S70,29.404,70,22.5S64.404,10,57.5,10z
		 M64.923,29.923c-0.964,0.964-2.087,1.722-3.337,2.25c-0.317,0.135-0.64,0.253-0.967,0.354v-1.874c0-0.984-0.337-1.709-1.014-2.172
		c0.423-0.041,0.812-0.098,1.166-0.172c0.354-0.073,0.728-0.179,1.123-0.316c0.395-0.138,0.749-0.303,1.062-0.495
		c0.313-0.191,0.613-0.439,0.903-0.745c0.289-0.303,0.531-0.65,0.726-1.037s0.35-0.851,0.464-1.392
		c0.115-0.541,0.171-1.138,0.171-1.788c0-1.262-0.41-2.336-1.232-3.223c0.375-0.977,0.334-2.039-0.122-3.186l-0.306-0.037
		c-0.212-0.024-0.592,0.064-1.141,0.269s-1.166,0.538-1.849,1.001c-0.969-0.269-1.973-0.403-3.015-0.403
		c-1.05,0-2.051,0.134-3.003,0.403c-0.431-0.293-0.84-0.536-1.226-0.727c-0.387-0.191-0.696-0.321-0.929-0.391
		c-0.232-0.07-0.447-0.112-0.646-0.128c-0.199-0.017-0.328-0.021-0.385-0.013c-0.057,0.008-0.098,0.016-0.122,0.024
		c-0.456,1.156-0.496,2.218-0.122,3.186c-0.822,0.887-1.233,1.961-1.233,3.223c0,0.651,0.057,1.247,0.171,1.789
		c0.114,0.542,0.269,1.004,0.464,1.392c0.195,0.386,0.438,0.732,0.727,1.037s0.59,0.553,0.903,0.745
		c0.313,0.19,0.667,0.355,1.062,0.494c0.395,0.138,0.769,0.244,1.124,0.317c0.355,0.072,0.742,0.13,1.166,0.171
		c-0.667,0.456-1,1.18-1,2.173v1.91c-0.369-0.109-0.732-0.239-1.089-0.391c-1.25-0.529-2.373-1.286-3.337-2.25
		c-0.965-0.965-1.722-2.087-2.25-3.338c-0.547-1.292-0.825-2.667-0.825-4.086s0.277-2.793,0.825-4.086
		c0.528-1.25,1.286-2.373,2.25-3.337c0.965-0.964,2.087-1.722,3.337-2.25c1.293-0.547,2.668-0.824,4.086-0.824
		c1.417,0,2.793,0.277,4.086,0.824c1.25,0.529,2.373,1.286,3.337,2.25c0.964,0.965,1.722,2.087,2.251,3.337
		C67.723,19.706,68,21.082,68,22.499c0,1.418-0.277,2.793-0.824,4.086c-0.529,1.25-1.286,2.373-2.251,3.338L64.923,29.923z"/>
</g>
<g id="Facebook">
	<path fill="#4D4D4D" d="M22.5,10C15.596,10,10,15.596,10,22.5S15.596,35,22.5,35v-9.375h-3.125V22.5H22.5v-2.344
		c0-2.157,1.75-3.906,3.906-3.906h3.906v3.125h-3.906c-0.431,0-0.781,0.351-0.781,0.781V22.5h4.297l-0.781,3.125h-3.516v8.981
		C31.016,33.218,35,28.324,35,22.5C35,15.596,29.404,10,22.5,10z"/>
</g>
<g id="Controller">
	<g>
		<path fill="#4D4D4D" d="M89.828,16.72c0.046,0.069,0.003,0.178-0.095,0.241l-4.554,2.968c-0.098,0.063-0.214,0.06-0.259-0.01
			l-1.246-1.91c-0.045-0.07-0.002-0.178,0.095-0.24l4.555-2.97c0.098-0.064,0.214-0.059,0.259,0.01L89.828,16.72z"/>
		<path fill="#4D4D4D" d="M109.831,16.72c-0.045,0.069-0.003,0.178,0.095,0.241l4.554,2.968c0.098,0.063,0.213,0.06,0.259-0.01
			l1.246-1.91c0.045-0.07,0.001-0.178-0.095-0.24l-4.555-2.97c-0.098-0.064-0.213-0.059-0.258,0.01L109.831,16.72z"/>
		<g>
			<path fill="#4D4D4D" d="M119.792,27.91c0,8.396-8.907,1.22-19.896,1.22C88.908,29.13,80,36.306,80,27.91
				c0-8.396,8.908-15.202,19.896-15.202C110.885,12.708,119.792,19.513,119.792,27.91z"/>
			<path fill="#FFFFFF" d="M91.691,21.208h-2.127V19.08c0-0.048-0.041-0.089-0.091-0.089h-2.714c-0.051,0-0.091,0.041-0.091,0.089
				v2.128h-2.127c-0.05,0-0.09,0.04-0.09,0.09v2.715c0,0.05,0.04,0.09,0.09,0.09h2.127v2.128c0,0.048,0.04,0.089,0.091,0.089h2.714
				c0.05,0,0.091-0.041,0.091-0.089v-2.128h2.127c0.049,0,0.09-0.04,0.09-0.09v-2.715C91.782,21.248,91.741,21.208,91.691,21.208z"
				/>
			<g>
				<ellipse fill="#FFFFFF" cx="111.733" cy="20.25" rx="1.24" ry="1.409"/>
				<ellipse fill="#FFFFFF" cx="111.733" cy="25.66" rx="1.24" ry="1.409"/>
				<ellipse fill="#FFFFFF" cx="108.915" cy="22.842" rx="1.24" ry="1.409"/>
				<ellipse fill="#FFFFFF" cx="114.213" cy="22.842" rx="1.24" ry="1.409"/>
			</g>
			<g>
				<path fill="#FFFFFF" d="M99.448,24.981c0,0.083-0.067,0.149-0.15,0.149h-3.627c-0.083,0-0.149-0.066-0.149-0.149v-0.598
					c0-0.083,0.066-0.15,0.149-0.15h3.627c0.083,0,0.15,0.067,0.15,0.15V24.981z"/>
				<path fill="#FFFFFF" d="M104.271,24.981c0,0.083-0.066,0.149-0.149,0.149h-3.628c-0.083,0-0.149-0.066-0.149-0.149v-0.598
					c0-0.083,0.067-0.15,0.149-0.15h3.628c0.083,0,0.149,0.067,0.149,0.15V24.981z"/>
			</g>
		</g>
		<path fill="none" stroke="#231F20" stroke-width="1.5245" d="M99.531,13.755"/>
	</g>
</g>
</svg>
